<svg id="Capa_1" xmlns="http://www.w3.org/2000/svg" xmlns:xlink="http://www.w3.org/1999/xlink" viewBox="0 0 34 50.7"><style>.st0{fill:#838c8a}.st1{clip-path:url(#SVGID_2_)}.st2{fill:#5c6361}.st3{fill:#e6ffce}.st4{fill:#5a6865}.st5{clip-path:url(#SVGID_4_)}.st6{fill:#3c4442}</style><title>SERVICES_MOBILE_V5</title><g id="Capa_1_1_"><path id="_Trazado_de_recorte_7" class="st0" d="M24.1 10.7c-1.4-.4-3 .2-3.8 1.4-.8-1.3-2.4-1.9-3.8-1.4-1.6.5-2.6 2-2.7 3.7h.7c.1-1.3.9-2.5 2.2-2.9 1.2-.4 2.3.1 3.2 1.5v30.9h.7V13c.9-1.3 2-1.8 3.2-1.5 1.3.4 2.1 1.6 2.2 2.9h.7c0-1.7-1-3.1-2.6-3.7z"/><defs><path id="SVGID_1_" d="M24.1 10.7c-1.4-.4-3 .2-3.8 1.4-.8-1.3-2.4-1.9-3.8-1.4-1.6.5-2.6 2-2.7 3.7h.7c.1-1.3.9-2.5 2.2-2.9 1.2-.4 2.3.1 3.2 1.5v30.9h.7V13c.9-1.3 2-1.8 3.2-1.5 1.3.4 2.1 1.6 2.2 2.9h.7c0-1.7-1-3.1-2.6-3.7z"/></defs><clipPath id="SVGID_2_"><use xlink:href="#SVGID_1_" overflow="visible"/></clipPath><g class="st1"><path class="st2" d="M10.2 7.9h10.1V45H10.2z"/></g><ellipse id="_Elipse_3" class="st3" cx="26.5" cy="16.6" rx="1.8" ry="1.4"/><path class="st0" d="M23.5 17c1.2-4.1 5.3-3.4 6 0h-6z"/><ellipse id="_Elipse_4" class="st3" cx="14.2" cy="16.6" rx="1.8" ry="1.4"/><path class="st0" d="M11.2 17c1.2-4.1 5.3-3.4 6 0h-6zm7.8 2.1h2.5v.6H19z"/><path id="_Trazado_de_recorte_8" class="st4" d="M21.5 47.1c0 .6-.5 1.1-1.1 1.1h-.2c-.6 0-1.1-.5-1.1-1.1v-3.2c0-.6.5-1.1 1.1-1.1h.2c.6 0 1.1.5 1.1 1.1v3.2z"/><defs><path id="SVGID_3_" d="M21.5 47.1c0 .6-.5 1.1-1.1 1.1h-.2c-.6 0-1.1-.5-1.1-1.1v-3.2c0-.6.5-1.1 1.1-1.1h.2c.6 0 1.1.5 1.1 1.1v3.2z"/></defs><clipPath id="SVGID_4_"><use xlink:href="#SVGID_3_" overflow="visible"/></clipPath><g class="st5"><path class="st6" d="M17.5 40.8h2.8v7.4h-2.8z"/></g><path class="st6" d="M18.5 47.5h3.7v.8h-3.7z"/></g></svg>