<?xml version="1.0" encoding="utf-8"?>
<!-- Generator: Adobe Illustrator 22.0.0, SVG Export Plug-In . SVG Version: 6.00 Build 0)  -->
<svg version="1.1" id="Capa_1" xmlns="http://www.w3.org/2000/svg" xmlns:xlink="http://www.w3.org/1999/xlink" x="0px" y="0px"
	 viewBox="0 0 33.7 57.7" style="enable-background:new 0 0 33.7 57.7;" xml:space="preserve">
<style type="text/css">
	.st0{fill:#5EE8F7;}
	.st1{clip-path:url(#SVGID_2_);}
	.st2{opacity:0.43;fill:url(#SVGID_3_);enable-background:new    ;}
	.st3{fill:#E264F2;}
	.st4{fill:#5B3CA0;}
	.st5{fill:#A15DC8;}
	.st6{fill:#F1F482;}
</style>
<polygon id="_Trazado_de_recorte_8" class="st0" points="25.1,22.6 27.5,33.1 24.8,47.5 8.2,47.3 5.6,33.1 8,22.5 "/>
<g>
	<defs>
		<polygon id="SVGID_1_" points="25.1,22.6 27.5,33.1 24.8,47.5 8.2,47.3 5.6,33.1 8,22.5 		"/>
	</defs>
	<clipPath id="SVGID_2_">
		<use xlink:href="#SVGID_1_"  style="overflow:visible;"/>
	</clipPath>
	<g class="st1">
		
			<linearGradient id="SVGID_3_" gradientUnits="userSpaceOnUse" x1="5.1788" y1="30.8313" x2="19.0388" y2="43.4713" gradientTransform="matrix(1 0 0 -1 0 66)">
			<stop  offset="0" style="stop-color:#FFFFFF"/>
			<stop  offset="0.33" style="stop-color:#CDF8FC"/>
			<stop  offset="1" style="stop-color:#5EE8F7"/>
		</linearGradient>
		<polygon class="st2" points="4.7,41.5 25.7,19.7 13.8,21.4 4.6,31 		"/>
	</g>
</g>
<rect x="13.9" y="20.8" class="st3" width="5.4" height="1.6"/>
<polygon class="st3" points="16,4.2 17.2,5.5 17.2,21.5 16,21.5 "/>
<rect x="6.8" y="40.5" class="st4" width="19.3" height="1.3"/>
<rect x="7.5" y="42.3" class="st4" width="18.2" height="0.2"/>
<rect x="7.5" y="42.9" class="st4" width="18.2" height="0.2"/>
<rect x="7.5" y="43.5" class="st4" width="18.2" height="0.2"/>
<rect x="7.5" y="44.2" class="st4" width="18.2" height="0.2"/>
<rect x="7.5" y="44.8" class="st4" width="18.2" height="0.2"/>
<rect x="7.5" y="45.4" class="st4" width="18.2" height="0.2"/>
<rect x="7.7" y="46.1" class="st4" width="17.4" height="0.2"/>
<path class="st5" d="M24.9,23.2l2,9.8l-2.5,13.6H8.8L6.3,33l2-9.8L24.9,23.2 M25.9,21.9H7.3L5,33l2.8,15h17.7l2.8-15L25.9,21.9
	L25.9,21.9z"/>
<path class="st6" d="M27.9,34.6c-0.8-0.3-4-0.4-4.2,1.8s1.8,3,3.2,3.6"/>
<path class="st6" d="M5.3,34.6c0.8-0.3,4-0.4,4.2,1.8s-1.8,3-3.2,3.6"/>
</svg>
