<svg id="Capa_1" xmlns="http://www.w3.org/2000/svg" xmlns:xlink="http://www.w3.org/1999/xlink" viewBox="0 0 32.7 52"><style>.st0{fill:#5ee8f7}.st1{clip-path:url(#SVGID_2_)}.st2{opacity:.43;fill:url(#SVGID_3_);enable-background:new}.st3{fill:#e264f2}.st4{fill:#5b3ca0}.st5{fill:#a15dc8}.st6{fill:#f1f482}</style><path id="_Trazado_de_recorte_7" class="st0" d="M23.3 22.9l1.9 8.7-2.2 12-13.8-.2L7 31.6l2-8.8z"/><defs><path id="SVGID_1_" d="M23.3 22.9l1.9 8.7-2.2 12-13.8-.2L7 31.6l2-8.8z"/></defs><clipPath id="SVGID_2_"><use xlink:href="#SVGID_1_" overflow="visible"/></clipPath><g class="st1"><linearGradient id="SVGID_3_" gradientUnits="userSpaceOnUse" x1="6.69" y1="-88.64" x2="18.22" y2="-78.13" gradientTransform="matrix(1 0 0 -1 0 -55.333)"><stop offset="0" stop-color="#fff"/><stop offset=".33" stop-color="#cdf8fc"/><stop offset="1" stop-color="#5ee8f7"/></linearGradient><path class="st2" d="M6.2 38.6l17.6-18.2-9.9 1.5-7.7 8z"/></g><path class="st3" d="M13.9 21.3h4.5v1.3h-4.5z"/><path class="st3" d="M15.6 8.1h1.1v13.8h-1.1z"/><path class="st4" d="M8.1 37.7h16v1.1h-16zm.5 1.5h15.2v.2H8.6zm0 .5h15.2v.2H8.6zm0 .6h15.2v.2H8.6zm0 .5h15.2v.2H8.6zm0 .5h15.2v.2H8.6zm0 .6h15.2v.2H8.6zm.2.5h14.5v.2H8.8z"/><path class="st5" d="M23.1 23.4l1.7 8.1-2.1 11.3h-13l-2-11.3 1.7-8.1h13.7m.8-1.1H8.4l-1.9 9.2L8.8 44h14.7l2.3-12.4-1.9-9.3z"/><path class="st6" d="M25.6 32.8c-.7-.2-3.3-.4-3.5 1.5s1.5 2.5 2.7 3m-18-4.5c.7-.2 3.3-.4 3.5 1.5s-1.5 2.5-2.7 3"/></svg>