<svg id="Capa_1" xmlns="http://www.w3.org/2000/svg" xmlns:xlink="http://www.w3.org/1999/xlink" viewBox="0 0 30.7 40"><style>.st0{fill:#5ee8f7}.st1{clip-path:url(#SVGID_2_)}.st2{opacity:.43;fill:url(#SVGID_3_);enable-background:new}.st3{fill:#e264f2}.st4{fill:#5b3ca0}.st5{fill:#a15dc8}.st6{fill:#f1f482}</style><path id="_Trazado_de_recorte_6" class="st0" d="M21.6 12.7l1.9 8.3-2.1 11.5-13.2-.2L6.1 21 8 12.6z"/><defs><path id="SVGID_1_" d="M21.6 12.7l1.9 8.3-2.1 11.5-13.2-.2L6.1 21 8 12.6z"/></defs><clipPath id="SVGID_2_"><use xlink:href="#SVGID_1_" overflow="visible"/></clipPath><g class="st1"><linearGradient id="SVGID_3_" gradientUnits="userSpaceOnUse" x1="5.766" y1="-31.306" x2="16.796" y2="-21.266" gradientTransform="matrix(1 0 0 -1 0 -8.667)"><stop offset="0" stop-color="#fff"/><stop offset=".33" stop-color="#cdf8fc"/><stop offset="1" stop-color="#5ee8f7"/></linearGradient><path class="st2" d="M5.4 27.7l16.7-17.4-9.5 1.4-7.3 7.6z"/></g><path class="st3" d="M12.7 11.2H17v1.2h-4.3z"/><path class="st3" d="M14.3 4.3l1.1 1v6.5h-1.1z"/><path class="st4" d="M7.1 26.9h15.3V28H7.1zm.5 1.4h14.5v.2H7.6zm0 .5h14.5v.2H7.6zm0 .5h14.5v.2H7.6zm0 .5h14.5v.2H7.6zm0 .5h14.5v.2H7.6zm0 .5h14.5v.2H7.6zm.2.5h13.8v.2H7.8z"/><path class="st5" d="M21.4 13.2L23 21l-2 10.8H8.7L6.7 21l1.6-7.8h13.1m.8-1.1H7.4l-1.8 8.8 2.2 11.9h14L24 20.9l-1.8-8.8z"/><path class="st6" d="M23.8 22.2c-.7-.2-3.1-.3-3.4 1.4s1.4 2.4 2.6 2.9M5.9 22.2c.6-.2 3.1-.4 3.3 1.4S7.8 26 6.6 26.4"/></svg>