<svg id="Capa_1" xmlns="http://www.w3.org/2000/svg" xmlns:xlink="http://www.w3.org/1999/xlink" viewBox="0 0 35.7 61"><style>.st0{fill:#5ee8f7}.st1{clip-path:url(#SVGID_2_)}.st2{opacity:.43;fill:url(#SVGID_3_);enable-background:new}.st3{fill:#e264f2}.st4{fill:#5b3ca0}.st5{fill:#a15dc8}.st6{fill:#f1f482}</style><path id="_Trazado_de_recorte_5" class="st0" d="M27.1 25.3l2.4 10.5-2.7 14.6-16.9-.2-2.6-14.3 2.4-10.8z"/><defs><path id="SVGID_1_" d="M27.1 25.3l2.4 10.5-2.7 14.6-16.9-.2-2.6-14.3 2.4-10.8z"/></defs><clipPath id="SVGID_2_"><use xlink:href="#SVGID_1_" overflow="visible"/></clipPath><g class="st1"><linearGradient id="SVGID_3_" gradientUnits="userSpaceOnUse" x1="6.875" y1="-68.605" x2="20.915" y2="-55.815" gradientTransform="matrix(1 0 0 -1 0 -30.667)"><stop offset="0" stop-color="#fff"/><stop offset=".33" stop-color="#cdf8fc"/><stop offset="1" stop-color="#5ee8f7"/></linearGradient><path class="st2" d="M6.3 44.4l21.3-22.2-12 1.8-9.3 9.7z"/></g><path class="st3" d="M15.7 23.4h5.4V25h-5.4z"/><path class="st3" d="M17.8 7.3h1.3v16.8h-1.3z"/><path class="st4" d="M8.6 43.3h19.5v1.3H8.6zm.6 1.8h18.5v.2H9.2zm0 .7h18.5v.2H9.2zm0 .6h18.5v.2H9.2zm0 .6h18.5v.2H9.2zm0 .7h18.5v.2H9.2zm0 .6h18.5v.2H9.2zm.3.7h17.6v.2H9.5z"/><path class="st5" d="M26.8 25.9l2 9.9-2.5 13.8H10.6L8 35.8l2-9.9h16.8m1-1.4H9L6.7 35.8l2.8 15.1h17.8l2.8-15.1-2.3-11.3z"/><path class="st6" d="M29.9 37.3c-.9-.3-4-.4-4.3 1.8s1.8 3.1 3.3 3.6M7 37.3c.8-.3 4-.4 4.3 1.8S9.5 42.2 8 42.8"/></svg>