<svg id="Capa_1" xmlns="http://www.w3.org/2000/svg" xmlns:xlink="http://www.w3.org/1999/xlink" viewBox="0 0 33.7 57.7"><style>.st0{fill:#5ee8f7}.st1{clip-path:url(#SVGID_2_)}.st2{opacity:.43;fill:url(#SVGID_3_);enable-background:new}.st3{fill:#e264f2}.st4{fill:#5b3ca0}.st5{fill:#a15dc8}.st6{fill:#f1f482}</style><path id="_Trazado_de_recorte_8" class="st0" d="M25.1 22.6l2.4 10.5-2.7 14.4-16.6-.2-2.6-14.2L8 22.5z"/><defs><path id="SVGID_1_" d="M25.1 22.6l2.4 10.5-2.7 14.4-16.6-.2-2.6-14.2L8 22.5z"/></defs><clipPath id="SVGID_2_"><use xlink:href="#SVGID_1_" overflow="visible"/></clipPath><g class="st1"><linearGradient id="SVGID_3_" gradientUnits="userSpaceOnUse" x1="5.179" y1="30.831" x2="19.039" y2="43.471" gradientTransform="matrix(1 0 0 -1 0 66)"><stop offset="0" stop-color="#fff"/><stop offset=".33" stop-color="#cdf8fc"/><stop offset="1" stop-color="#5ee8f7"/></linearGradient><path class="st2" d="M4.7 41.5l21-21.8-11.9 1.7L4.6 31z"/></g><path class="st3" d="M13.9 20.8h5.4v1.6h-5.4z"/><path class="st3" d="M16 4.2l1.2 1.3v16H16z"/><path class="st4" d="M6.8 40.5h19.3v1.3H6.8zm.7 1.8h18.2v.2H7.5zm0 .6h18.2v.2H7.5zm0 .6h18.2v.2H7.5zm0 .7h18.2v.2H7.5zm0 .6h18.2v.2H7.5zm0 .6h18.2v.2H7.5zm.2.7h17.4v.2H7.7z"/><path class="st5" d="M24.9 23.2l2 9.8-2.5 13.6H8.8L6.3 33l2-9.8h16.6m1-1.3H7.3L5 33l2.8 15h17.7l2.8-15-2.4-11.1z"/><path class="st6" d="M27.9 34.6c-.8-.3-4-.4-4.2 1.8s1.8 3 3.2 3.6M5.3 34.6c.8-.3 4-.4 4.2 1.8s-1.8 3-3.2 3.6"/></svg>