<svg id="Capa_1" data-name="Capa 1" xmlns="http://www.w3.org/2000/svg" viewBox="0 0 259.43 63.85"><defs><style>.cls-1{fill:#515151;}</style></defs><title>ALIADOS</title><path class="cls-1" d="M15,63.49c-4.59,0-9.18,0-13.77,0-1,0-1.25-.26-1.24-1.24Q.07,48.56,0,34.85c0-1.28.45-1.49,1.59-1.48q13.64.06,27.27,0c1,0,1.36.36,1.35,1.38,0,8.92,0,17.84,0,26.76,0,2,0,2-1.92,2Z"/><path class="cls-1" d="M15.2.24c4.59,0,9.18,0,13.77,0,.89,0,1.22.2,1.21,1.14q-.08,13.89-.07,27.8c0,.85-.24,1.2-1.19,1.2q-13.84-.06-27.68,0c-1,0-1.23-.29-1.23-1.27Q.07,15.32,0,1.55C0,.56.22.2,1.3.22,5.93.28,10.56.24,15.2.24Z"/><path class="cls-1" d="M101.29,9.82a7.22,7.22,0,0,0-1.61,3Q95.76,22.57,92,32.37a1.26,1.26,0,0,1-1.43,1c-2.79,0-2.77,0-3.63-2.12Q82.77,21,78.61,10.73c-.15-.36-.32-.71-.47-1.07h-.37v2.81c0,6.52,0,13,0,19.55,0,1-.24,1.42-1.29,1.3s-2.68.47-3.43-.22-.25-2.23-.25-3.39c0-8.66,0-17.32,0-26,0-1.15.32-1.54,1.48-1.47a37.38,37.38,0,0,0,4.85,0,1.75,1.75,0,0,1,2,1.36c1.49,3.87,3,7.72,4.53,11.58,1.31,3.31,2.64,6.61,4.08,10.2,1-2.35,1.84-4.43,2.69-6.51q3.18-7.81,6.33-15.63a1.3,1.3,0,0,1,1.36-1c1.83,0,3.67,0,5.51,0,.77,0,.94.31.94,1q0,14.49,0,29c0,.8-.22,1.09-1,1-1.35-.08-3.09.42-3.94-.24s-.28-2.54-.28-3.87c0-6,0-12.07,0-18.11Z"/><path class="cls-1" d="M248.6,29c0,1.32,0,2.45,0,3.58a.71.71,0,0,1-.5.8c-2.51.8-6.52,1-8.49-1.53a8.16,8.16,0,0,1-1.47-5.18c-.09-3.37-.07-6.74,0-10.1,0-1-.3-1.27-1.26-1.24-1.84.08-3.68.07-5.52,0-.92,0-1.2.28-1.19,1.2,0,5.12,0,10.24.05,15.35,0,1.2-.35,1.54-1.47,1.42a14.44,14.44,0,0,0-2.63,0c-.92.08-1.18-.24-1.18-1.17,0-5,0-10.06,0-15.09,0-1.68,0-1.68-1.69-1.69-.4,0-.79,0-1.18,0-.55,0-.84-.16-.79-.74a4.69,4.69,0,0,0,0-.53c0-.91-.26-2,.15-2.7s1.68-.22,2.56-.26c.73,0,1-.31,1-1a21,21,0,0,1,.12-3.54A7.5,7.5,0,0,1,232.18,0h.26c3.69-.11,4.31.63,3.64,4.24-.17,1-.73.36-1.07.28-1.92-.48-3.45-.14-4.19,1.22a8.44,8.44,0,0,0-.57,4.87c0,.41.37.43.68.44,2.14.11,4.29.1,6.43,0,.57,0,.76-.26.75-.8,0-1,0-2.1,0-3.15,0-.71.13-1.12.88-1.31,1.19-.3,2.36-.66,3.51-1.05.68-.23.86,0,.85.63,0,1.53,0,3.06,0,4.59,0,.89.29,1.14,1.12,1.1,1-.05,2.1,0,3.14,0,.78,0,1.06.28,1.08,1.07.06,3.23.08,3.23-3.2,3.22-2.12,0-2.14,0-2.11,2.16,0,3.1-.25,6.22.15,9.3.32,2.53,1.89,3.34,4.31,2.49Z"/><path class="cls-1" d="M194.23,16.22a13.25,13.25,0,0,0-4.6-1.52c-2.06-.36-3.72.9-3.56,2.7a2.36,2.36,0,0,0,1.4,1.9c1.57.86,3.26,1.46,4.85,2.28,4.2,2.17,4.16,8.74-.08,11-3.62,1.94-7.3,1.57-11,.31-.25-.08-.55-.21-.55-.5a36.62,36.62,0,0,1,0-4.19c.07-.71.57-.17.85,0a10.44,10.44,0,0,0,6.25,1.52c1.08-.11,2-.44,2.31-1.56a2.26,2.26,0,0,0-1.33-2.82l-4.71-2.28a5.8,5.8,0,0,1-3.35-5.49A6.06,6.06,0,0,1,183.78,12c3.11-1.87,6.4-1.69,9.74-.73a.91.91,0,0,1,.72,1.06C194.22,13.55,194.23,14.78,194.23,16.22Z"/><path class="cls-1" d="M137.89,16.57c-4.9-2.33-8.25-2.06-10.43.75s-2.09,7.49,0,10.05c2.25,2.74,5.5,2.92,10.4.5,0,1.41,0,2.74,0,4.06a.88.88,0,0,1-.68.86C133,34.46,128.84,34.61,125,32s-4.84-6.47-4.36-10.92,2.63-7.9,7-9.59a13.57,13.57,0,0,1,9.48-.09,1,1,0,0,1,.82,1.13C137.86,13.8,137.89,15.11,137.89,16.57Z"/><path class="cls-1" d="M147.58,14.14c1.31-2.33,3.18-3.64,6-3.37.92.09,1.52.33,1.36,1.42a7.72,7.72,0,0,0,0,1.18c0,.87-.05,1.74-.07,2.61-.79-.16-1.58-.38-2.38-.48a4,4,0,0,0-4,1.84A6.72,6.72,0,0,0,147.24,21c0,3.24,0,6.47,0,9.71,0,2.57,0,2.57-2.63,2.57a13.87,13.87,0,0,0-1.58,0c-.84.1-1-.28-1-1q0-10,0-20.08c0-.76.17-1.12,1-1.07,1.34.09,2.7-.25,4,.11a12.62,12.62,0,0,1,.11,2.38C147.18,13.86,147,14.28,147.58,14.14Z"/><path class="cls-1" d="M73,59.07a12.1,12.1,0,0,0,7.09,1.76c2.8-.22,4.39-2.17,3.69-4.53a4.1,4.1,0,0,0-1.68-2.11c-1.79-1.27-3.85-2.06-5.71-3.21-2.8-1.73-3.92-4.13-3.13-6.94a5.52,5.52,0,0,1,3.6-3.72,12.3,12.3,0,0,1,8-.28c.83.24,1.47,2.31.93,3-.34.4-.64,0-.91-.14a9.11,9.11,0,0,0-6.14-.64,3.33,3.33,0,0,0-1.31,6.13c1.78,1.28,3.86,2,5.7,3.22,2.21,1.43,3.81,3.19,3.59,6.07A5.05,5.05,0,0,1,84,62c-3.4,1.83-6.92,1.43-10.44.36a.81.81,0,0,1-.59-.9C73,60.74,73,60,73,59.07Z"/><path class="cls-1" d="M116.84,22.32c0,3.32,0,6.65,0,10,0,.8-.2,1.09-1,1-1.35-.08-3.1.43-3.94-.24s-.27-2.54-.28-3.88c0-5.59,0-11.19,0-16.79,0-1,.26-1.45,1.33-1.35a16.37,16.37,0,0,0,2.62,0c1-.09,1.36.23,1.33,1.29C116.79,15.67,116.84,19,116.84,22.32Z"/><path class="cls-1" d="M217.52,48.15a6.55,6.55,0,0,1,5.53-2.84,5.35,5.35,0,0,1,5.59,5.35c.11,3.58,0,7.17.07,10.75,0,1.09-.66.91-1.3.92s-1.39.12-1.36-1c.08-2.41,0-4.81,0-7.22a14.48,14.48,0,0,0-.19-2.86c-.38-2-1.29-3.31-2.59-3.56A4.55,4.55,0,0,0,218.07,50a5.48,5.48,0,0,0-.69,2.75c0,2.8,0,5.6,0,8.39,0,1.07-.43,1.24-1.32,1.21s-1.53,0-1.52-1.19c.06-4.8.07-9.62,0-14.43,0-1.4.83-1.08,1.62-1.16,1-.1,1.39.21,1.25,1.22A7.5,7.5,0,0,0,217.52,48.15Z"/><path class="cls-1" d="M204.32,53.59c0-1.39-.09-2.8,0-4.19.1-1.23-.34-1.68-1.52-1.48s-1.51-.21-1.47-1.4.91-1,1.53-.92c1.15.11,1.64-.27,1.44-1.44a5.21,5.21,0,0,1,0-.79c0-1.82.26-2.1,2.09-2.41.54-.09.72,0,.71.57,0,1,0,2.1,0,3.15,0,.68.22.94.9.9.87,0,1.75,0,2.62,0s.78.62.77,1.16.21,1.21-.74,1.19-1.75,0-2.62,0c-.65,0-.94.16-.93.88,0,3.14,0,6.29,0,9.44,0,1.68,1.25,2.43,3.15,2.14.35,0,1-.77,1.08.18.06.66.38,1.47-.66,1.87a4.51,4.51,0,0,1-6.39-4.24C204.29,56.65,204.32,55.12,204.32,53.59Z"/><path class="cls-1" d="M111.87,59.27q2.11-5.85,4.22-11.71a2.22,2.22,0,0,1,2.77-1.07c.51.27.12.61,0,.88q-2.13,5.43-4.27,10.85a36.56,36.56,0,0,0-1.39,3.54c-.33,1.16-1.15.92-2,1s-1.2-.36-1.47-1.1c-1.66-4.51-3.39-9-5-13.51-.17-.49-1-1.16-.12-1.64a2,2,0,0,1,2.66,1c1,2.84,2,5.69,3,8.54.38,1.07.74,2.15,1.1,3.22C111.53,59.51,111.7,59.44,111.87,59.27Z"/><path class="cls-1" d="M33.32,15.3c0-4.59,0-9.19,0-13.78,0-1.07.33-1.3,1.33-1.29q13.79,0,27.56,0c1,0,1.26.29,1.25,1.26-.14,8.79-.17,17.58,0,26.37.06,3,.12,2.48-2.41,2.48-8.75,0-17.5,0-26.25,0-1.27,0-1.51-.4-1.49-1.56.06-4.51,0-9,0-13.52Z"/><path class="cls-1" d="M194.72,48.27c1.07-1.26,1.93-2.44,3.63-2.77,2.08-.39,2.52-.1,2.31,1.93,0,.2,0,.41,0,.63-3.8-.63-5.88,1.12-5.93,5,0,2.71-.08,5.42,0,8.12,0,1.42-.85,1.08-1.63,1.15s-1.31-.14-1.3-1.19c.06-4.81.08-9.61,0-14.42,0-1.4.8-1.1,1.59-1.16s1.47,0,1.32,1.16A11.44,11.44,0,0,0,194.72,48.27Z"/><path class="cls-1" d="M101.42,50.73c0,3.59,0,7.18,0,10.76,0,1.13-.44,1.27-1.38,1.29s-1.29-.26-1.28-1.26q.06-10.69,0-21.39c0-1,.27-1.36,1.33-1.35s1.35.28,1.33,1.33C101.38,43.65,101.42,47.19,101.42,50.73Z"/><path class="cls-1" d="M253.73,48.41a5.38,5.38,0,0,1,3.76-3c1.54-.31,2.24.28,2.27,1.67,0,1-.28,1.1-1.21.9a3.71,3.71,0,0,0-4.5,2.56,13.22,13.22,0,0,0-.69,4.87c0,2,0,4,0,6,0,1-.5,1-1.16.91s-1.47.35-1.47-.88c0-5,0-10,0-15,0-1.27.93-.72,1.51-.81s1.22,0,1.15.89A2.36,2.36,0,0,0,253.73,48.41Z"/><path class="cls-1" d="M141.48,49.21c.94-1.34,1.87-2.55,3.58-2.89s2.41.13,2.24,2c0,.46-.06.67-.67.6-3.16-.37-5,1.3-5.11,4.67-.08,2.67-.09,5.34,0,8,0,1.19-.54,1.19-1.42,1.23s-1.25-.31-1.24-1.27c.05-4.63.06-9.26,0-13.89,0-1.1.46-1.17,1.33-1.18s1.44.15,1.31,1.21A13.71,13.71,0,0,0,141.48,49.21Z"/><path class="cls-1" d="M48.34,63.49c-4.55,0-9.1,0-13.64,0-1.09,0-1.41-.3-1.4-1.39q.06-13.77,0-27.54c0-1,.3-1.25,1.28-1.24q13.77,0,27.54,0c1.06,0,1.36.36,1.36,1.35q0,13.83,0,27.67c0,1-.4,1.15-1.25,1.14C57.61,63.48,53,63.49,48.34,63.49Z"/><path class="cls-1" d="M90.9,54.54c0-2.32,0-4.63,0-6.94,0-1.12.55-1.16,1.39-1.16s1.29.05,1.28,1.09q-.09,7.08,0,14.15c0,1.21-.7,1-1.44,1.08s-1.25-.18-1.23-1.15C90.94,59.26,90.9,56.9,90.9,54.54Z"/><path class="cls-1" d="M114.3,7.63a3,3,0,0,1-3.2-3.08,3.13,3.13,0,0,1,3.15-2.84,3,3,0,0,1,3.25,3A3.05,3.05,0,0,1,114.3,7.63Z"/><path class="cls-1" d="M92.12,42.45a1.66,1.66,0,0,1-1.5-1.86,1.63,1.63,0,0,1,1.93-1.5A1.55,1.55,0,0,1,94,41,1.69,1.69,0,0,1,92.12,42.45Z"/><path class="cls-1" d="M1.44,29V2H1.6V29Z"/><path class="cls-1" d="M218.9,15.1c-2.05-3.32-5.33-4.44-9.8-4.55a12.46,12.46,0,0,0-6.61,2c-4.41,2.93-6.07,10.17-3.64,15.45,3,6.52,11.73,7.46,17,4.13C221.36,28.63,222,20.14,218.9,15.1Zm-4.3,11.22a4.69,4.69,0,0,1-4.22,3.22c-2.33.23-4.46-.17-5.88-2.3a7.43,7.43,0,0,1-1.24-4.88,8.74,8.74,0,0,1,.53-3.7A5.71,5.71,0,0,1,210,14.89a5.57,5.57,0,0,1,5.05,4.74A11.84,11.84,0,0,1,214.6,26.32Z"/><path class="cls-1" d="M167.1,10.55c-7.83.12-11.82,4.65-11.85,12,0,7.09,4.11,11.39,11.29,11.42s11.55-4.39,11.64-11.9C178.26,15,173.9,10.56,167.1,10.55Zm5.59,11.68a14.13,14.13,0,0,1-.13,2.34c-.82,3.77-2.86,5.3-6.71,5-2.79-.23-5-2.79-5.17-6-.11-2.24,0-4.45,1.38-6.38a5.57,5.57,0,0,1,5.52-2.24,5.28,5.28,0,0,1,4.6,3.58A7.72,7.72,0,0,1,172.69,22.23Z"/><path class="cls-1" d="M165.33,39.15a57.35,57.35,0,0,0-7.06-.17c-1.32,0-1.5.44-1.49,1.55.05,3.37,0,6.74,0,10.11h0c0,3.41.05,6.82,0,10.23,0,1.14.26,1.49,1.44,1.5s1.45-.51,1.41-1.57c-.07-2.06,0-4.12-.06-6.17,0-1,.29-1.21,1.2-1.2a16.85,16.85,0,0,0,4.7-.25c4-1.08,5.78-3.65,5.91-7.19S169.13,39.72,165.33,39.15Zm1,11c-1.93,1.1-4,1-6.13.92-.57,0-.56-.43-.57-.84V46.3c0-1.26,0-2.53,0-3.8,0-.78.2-1.12,1-1.07,1.69.11,3.39-.19,5,.48a3.7,3.7,0,0,1,2.66,3.24C168.5,47.14,168.31,49,166.32,50.16Z"/><path class="cls-1" d="M187.24,61.15c-.09-1.39,0-2.79,0-4.19a57.42,57.42,0,0,0-.22-7.18,4.78,4.78,0,0,0-3.7-4.22,11.39,11.39,0,0,0-6.53.59,1.84,1.84,0,0,0-1.46,2.23c.09.75.15,1.15.93.57a7.59,7.59,0,0,1,5.09-1.3,2.82,2.82,0,0,1,2.94,2.42c.35,1.57.24,1.67-1.33,1.92-2.14.35-4.34.41-6.37,1.27s-2.89,2.54-2.8,5a4.33,4.33,0,0,0,3,4,6.19,6.19,0,0,0,7.4-2.14,1.1,1.1,0,0,1,.23,1.07c-.15,1.34.79,1,1.53,1.1S187.31,62.24,187.24,61.15Zm-2.86-5.59c0,3.25-2.07,5.12-5.22,4.83a2.83,2.83,0,0,1-.8-5.5,20.47,20.47,0,0,1,5.26-.88C184.91,53.86,184.13,55.1,184.38,55.56Z"/><path class="cls-1" d="M236.22,54.6c2.84,0,5.68,0,8.52,0,2.49,0,2.56,0,2.3-2.48-.28-2.76-1.2-5.26-4.11-6.3s-5.85-.7-8.18,1.72c-2.51,2.6-2.86,5.75-2.19,9.11a6.83,6.83,0,0,0,6.07,6,11.35,11.35,0,0,0,5.17-.48c2.14-.64,2.34-.94,2-3.45a8.83,8.83,0,0,1-5.79,1.72,5,5,0,0,1-4.89-4.69C235.08,54.85,235.35,54.58,236.22,54.6Zm-.93-3.17a5,5,0,0,1,6.25-3.69,4.39,4.39,0,0,1,2.79,3.91c0,.64-.31.82-.9.81-1.22,0-2.44,0-3.66,0v-.06c-1.22,0-2.44,0-3.66,0C235.35,52.43,235.09,52.23,235.29,51.43Z"/><path class="cls-1" d="M124.5,55.34c2.4,0,4.81,0,7.21,0,3.34,0,3.34,0,3-3.33a6.55,6.55,0,0,0-10.38-4.84c-3.67,2.44-4.8,8.79-2.32,12.89a6.3,6.3,0,0,0,4.91,3.11,11.58,11.58,0,0,0,4.42-.32c2.2-.59,2.47-1,2.26-3.51-.52.33-.91.6-1.32.83-4,2.25-8,.52-8.74-3.71C123.37,55.55,123.62,55.32,124.5,55.34ZM128,48.22a3.91,3.91,0,0,1,4.12,4c.06.79-.16,1.1-1,1.06-1.13-.06-2.26,0-3.39,0H124.2c-.38,0-.62,0-.61-.55A5,5,0,0,1,128,48.22Z"/><path class="cls-1" d="M34.42,26c-.5,1,.11,2.19-.69,3.21-.31-1.85.15-3.57.15-5.3,0-6.52,0-13,0-19.55a7.75,7.75,0,0,0,0-1.18,1.46,1.46,0,0,1,1.61-1.89c3,0,6,0,9.05,0H59.87c.75,0,1.46-.06,1.34,1,0,.21.06.47.36.4s.36-.33.29-.62c-.11-.49-.44-1.19.33-1.27s.83.74.83,1.34q0,13.11,0,26.24c0,1.09-.67,1.45-1.59,1.48-1.35,0-2.71,0-4.07,0-7.17,0-14.34,0-21.51,0-1.15,0-1.6-.28-1.47-1.46A20.18,20.18,0,0,0,34.42,26Z"/><path class="cls-1" d="M34.77.51H60.85V.64H34.72Z"/><path class="cls-1" d="M63,48.45v13c0,.3,0,.61,0,.92s-.08.55-.43.51-.26-.29-.19-.51.15-.67-.31-.66-.42.43-.35.71c.23.85-.3.8-.85.8H35.17c-1.08,0-1.56-.33-1.56-1.52q.06-13,0-26.11a1.53,1.53,0,0,1,1.72-1.75c8.53,0,17.06,0,25.59,0a7.77,7.77,0,0,0,1.54.1c.8-.13.55.62.55,1,0,3.94,0,7.87,0,11.81Z"/></svg>