<svg id="Capa_1" data-name="Capa 1" xmlns="http://www.w3.org/2000/svg" viewBox="0 0 191.08 66.88"><defs><style>.cls-1{fill:#515151;}</style></defs><title>ALIADOS</title><path class="cls-1" d="M85.11,24.8h1.38V50.93H85.11Zm21-.65A13.45,13.45,0,0,0,92.36,37.86a13.76,13.76,0,0,0,27.51,0,13.44,13.44,0,0,0-13.75-13.71Zm0,26.14A12.13,12.13,0,0,1,93.74,37.86a12.38,12.38,0,1,1,24.75,0A12.12,12.12,0,0,1,106.12,50.29ZM146,26.77a13,13,0,0,0-8.33-2.62c-4.14,0-8.73,1.93-10.35,5.68h-.1v-5h-1.38V50.93h1.38v-15c0-6.56,4-10.45,10.6-10.45,3.94,0,6.06,1.28,7.39,2.46,2,1.78,3.21,4.69,3.21,9.22V50.93h1.38V37.12C149.75,32.44,148.52,28.94,146,26.77Zm11.44-2h1.38V50.93h-1.38Zm21,25.49A12.18,12.18,0,0,1,166,37.86a12.42,12.42,0,0,1,3.6-8.92,12,12,0,0,1,8.82-3.5,11.8,11.8,0,0,1,11.44,7.84h1.53a13.79,13.79,0,0,0-26.77,4.63c0,8.14,6.16,13.66,13.75,13.66,6.22,0,11.15-3.55,13-8.88h-1.53C188.55,46.59,184.31,50.29,178.39,50.29Z"/><circle class="cls-1" cx="85.8" cy="16.7" r="1.49"/><circle class="cls-1" cx="158.08" cy="16.7" r="1.49"/><circle class="cls-1" cx="33.39" cy="33.39" r="13.63"/><path class="cls-1" d="M61.21,10.26a4.69,4.69,0,0,0-7.76-3.54,33.34,33.34,0,1,0,6.61,6.6,4.67,4.67,0,0,0,1.15-3.06ZM33.39,65.65a32.27,32.27,0,1,1,19.3-58.1,4.68,4.68,0,0,0,3.83,7.39,4.64,4.64,0,0,0,2.7-.86A32.25,32.25,0,0,1,33.39,65.65Z"/></svg>