<?xml version="1.0" encoding="utf-8"?>
<!-- Generator: Adobe Illustrator 22.0.1, SVG Export Plug-In . SVG Version: 6.00 Build 0)  -->
<svg version="1.1" id="Capa_1" xmlns="http://www.w3.org/2000/svg" xmlns:xlink="http://www.w3.org/1999/xlink" x="0px" y="0px"
	 viewBox="0 0 40.5 40.4" style="enable-background:new 0 0 40.5 40.4;" xml:space="preserve">
<style type="text/css">
	.st0{fill:#FFFFFF;}
</style>
<g>
	<path class="st0" d="M20.3,25.7c-0.3,0-0.5-0.1-0.7-0.3l-8.9-8.9c-0.4-0.4-0.4-1,0-1.4s1-0.4,1.4,0l8.2,8.2l8.2-8.2
		c0.4-0.4,1-0.4,1.4,0s0.4,1,0,1.4L21,25.4C20.8,25.6,20.5,25.7,20.3,25.7z"/>
	<path class="st0" d="M20.3,40.5C9.1,40.5,0,31.4,0,20.3C0,9.1,9.1,0,20.3,0c11.2,0,20.3,9.1,20.3,20.3
		C40.5,31.4,31.4,40.5,20.3,40.5z M20.3,2C10.2,2,2,10.2,2,20.3s8.2,18.3,18.3,18.3c10.1,0,18.3-8.2,18.3-18.3S30.3,2,20.3,2z"/>
</g>
</svg>
