<?xml version="1.0" encoding="UTF-8"?>
<svg width="53px" height="52px" viewBox="0 0 53 52" version="1.1" xmlns="http://www.w3.org/2000/svg" xmlns:xlink="http://www.w3.org/1999/xlink">
    <!-- Generator: Sketch 43.2 (39069) - http://www.bohemiancoding.com/sketch -->
    <title>icono3_advantages</title>
    <desc>Created with Sketch.</desc>
    <defs>
        <linearGradient x1="96.1673077%" y1="13.0365385%" x2="-1.91538462%" y2="92.6134615%" id="linearGradient-1">
            <stop stop-color="#00FF73" offset="0.1081731%"></stop>
            <stop stop-color="#B7EA4C" offset="100%"></stop>
        </linearGradient>
        <linearGradient x1="83.8826923%" y1="23.6038462%" x2="4.30576923%" y2="88.375%" id="linearGradient-2">
            <stop stop-color="#E777CB" offset="0.4326923%"></stop>
            <stop stop-color="#7F56C5" offset="100%"></stop>
        </linearGradient>
        <linearGradient x1="9.47884615%" y1="91.6288462%" x2="96.4576923%" y2="2.18269231%" id="linearGradient-3">
            <stop stop-color="#E777CB" offset="0.4326923%"></stop>
            <stop stop-color="#7F56C5" offset="100%"></stop>
        </linearGradient>
    </defs>
    <g id="Page-1" stroke="none" stroke-width="1" fill="none" fill-rule="evenodd">
        <g id="flexibility" fill-rule="nonzero">
            <g id="icono3_advantages">
                <circle id="Oval" fill="#FFFFFF" cx="26.4" cy="25.7" r="25.7"></circle>
                <g id="Group" transform="translate(13.000000, 12.000000)">
                    <rect id="Rectangle-path" fill="#7F56C5" x="21.1" y="21.5" width="5.2" height="5.2"></rect>
                    <rect id="Rectangle-path" fill="#FC6DC9" x="14.2" y="21.5" width="5.2" height="5.2"></rect>
                    <rect id="Rectangle-path" fill="#7F56C5" x="7.3" y="21.5" width="5.2" height="5.2"></rect>
                    <rect id="Rectangle-path" fill="#4BD8F9" x="0.4" y="21.5" width="5.2" height="5.2"></rect>
                    <rect id="Rectangle-path" fill="url(#linearGradient-1)" x="0.4" y="14.6" width="5.2" height="5.2"></rect>
                    <rect id="Rectangle-path" fill="#4BD8F9" x="7.3" y="14.6" width="5.2" height="5.2"></rect>
                    <rect id="Rectangle-path" fill="url(#linearGradient-2)" x="14.2" y="14.6" width="5.2" height="5.2"></rect>
                    <rect id="Rectangle-path" fill="#4BD8F9" x="21.1" y="14.6" width="5.2" height="5.2"></rect>
                    <rect id="Rectangle-path" fill="#FC6DC9" x="21.1" y="7.6" width="5.2" height="5.2"></rect>
                    <rect id="Rectangle-path" fill="#7F56C5" x="14.2" y="7.7" width="5.2" height="5.2"></rect>
                    <rect id="Rectangle-path" fill="#F9E33E" x="7.3" y="7.7" width="5.2" height="5.2"></rect>
                    <rect id="Rectangle-path" fill="url(#linearGradient-3)" x="0.4" y="7.7" width="5.2" height="5.2"></rect>
                    <rect id="Rectangle-path" fill="#4BD8F9" x="0.4" y="0.6" width="5.2" height="5.2"></rect>
                    <rect id="Rectangle-path" fill="#FC6DC9" x="7.3" y="0.6" width="5.2" height="5.2"></rect>
                    <rect id="Rectangle-path" fill="#4BD8F9" x="14.2" y="0.6" width="5.2" height="5.2"></rect>
                    <rect id="Rectangle-path" fill="#7F56C5" x="21.1" y="0.6" width="5.2" height="5.2"></rect>
                    <path d="M5.3,0.9 L5.3,5.5 L3,5.5 L0.7,5.5 L0.7,3.9 L0.7,3.2 L0.7,2.5 L0.7,0.9 L3,0.9 L5.3,0.9 L5.3,0.9 Z M5.6,0.3 L5.6,0.3 L3,0.3 L0.4,0.3 L0.4,0.3 C0.2,0.3 0.2,0.3 0.2,0.5 L0.2,3.1 L0.2,5.8 C0.2,6 0.2,6 0.4,6 L0.4,6 L3,6 L5.6,6 L5.6,6 C5.8,6 5.8,5.9 5.8,5.8 L5.8,0.5 C5.8,0.4 5.8,0.3 5.6,0.3 L5.6,0.3 Z" id="Shape" fill="#000000"></path>
                    <path d="M5.3,14.9 L5.3,19.5 L3,19.5 L0.7,19.5 L0.7,17.9 L0.7,17.2 L0.7,16.5 L0.7,14.9 L3,14.9 C3.8,14.9 4.5,14.9 5.3,14.9 L5.3,14.9 Z M5.6,14.4 L5.6,14.4 L3,14.4 L0.4,14.4 L0.4,14.4 C0.2,14.4 0.2,14.4 0.2,14.6 L0.2,17.2 L0.2,19.9 C0.2,20.1 0.2,20.1 0.4,20.1 L0.4,20.1 L3,20.1 L5.6,20.1 L5.6,20.1 C5.8,20.1 5.8,20 5.8,19.9 L5.8,14.6 C5.8,14.4 5.8,14.4 5.6,14.4 L5.6,14.4 Z" id="Shape" fill="#000000"></path>
                    <path d="M12.2,0.9 L12.2,2.5 L12.2,3.2 L12.2,3.9 L12.2,5.5 L9.9,5.5 L7.6,5.5 L7.6,0.9 L9.9,0.9 L12.2,0.9 L12.2,0.9 Z M12.6,0.3 C12.5,0.3 12.5,0.3 12.6,0.3 L10,0.3 L7.4,0.3 L7.4,0.3 C7.2,0.3 7.2,0.3 7.2,0.5 L7.2,5.8 C7.2,6 7.2,6 7.4,6 L7.4,6 L10,6 L12.6,6 L12.6,6 C12.8,6 12.8,6 12.8,5.8 L12.8,3.2 L12.8,0.5 C12.8,0.4 12.7,0.3 12.6,0.3 L12.6,0.3 Z" id="Shape" fill="#000000"></path>
                    <path d="M12.2,14.9 L12.2,16.5 L12.2,17.2 L12.2,17.9 L12.2,19.5 L9.9,19.5 L7.6,19.5 L7.6,14.9 L9.9,14.9 C10.7,14.9 11.4,14.9 12.2,14.9 L12.2,14.9 Z M12.6,14.4 L12.6,14.4 L10,14.4 L7.4,14.4 L7.4,14.4 C7.2,14.4 7.2,14.4 7.2,14.6 L7.2,19.9 C7.2,20.1 7.3,20.1 7.4,20.1 L7.4,20.1 L10,20.1 L12.6,20.1 L12.6,20.1 C12.8,20.1 12.8,20.1 12.8,19.9 L12.8,17.2 L12.8,14.6 C12.8,14.4 12.7,14.4 12.6,14.4 L12.6,14.4 Z" id="Shape" fill="#000000"></path>
                    <path d="M5.3,21.9 L5.3,26.5 L3,26.5 L0.7,26.5 L0.7,24.9 L0.7,24.2 L0.7,23.5 L0.7,21.9 L3,21.9 C3.8,21.9 4.5,21.9 5.3,21.9 L5.3,21.9 Z M5.6,21.3 L5.6,21.3 L3,21.3 L0.4,21.3 L0.4,21.3 C0.2,21.3 0.2,21.3 0.2,21.5 L0.2,24.1 L0.2,26.7 C0.2,26.9 0.2,27 0.5,27 L0.5,27 L3.1,27 L5.7,27 L5.7,27 C5.9,27 5.9,27 5.9,26.8 L5.9,21.6 C5.8,21.4 5.8,21.3 5.6,21.3 L5.6,21.3 Z" id="Shape" fill="#000000"></path>
                    <path d="M5.3,8 L5.3,9.6 L5.3,10.3 L5.3,11 L5.3,12.6 L3,12.6 L0.7,12.6 L0.7,8 L3,8 C3.8,8 4.5,8 5.3,8 L5.3,8 Z M5.6,7.5 L5.6,7.5 L3,7.5 L0.4,7.5 L0.4,7.5 C0.2,7.5 0.2,7.6 0.2,7.7 L0.2,13 C0.2,13.2 0.2,13.2 0.4,13.2 L0.4,13.2 L3,13.2 L5.6,13.2 L5.6,13.2 C5.8,13.2 5.8,13.2 5.8,13 L5.8,10.4 L5.8,7.8 C5.8,7.5 5.8,7.5 5.6,7.5 L5.6,7.5 Z" id="Shape" fill="#000000"></path>
                    <path d="M21.5,0.9 L23.8,0.9 L26.1,0.9 L26.1,5.5 L23.8,5.5 L21.5,5.5 L21.5,3.9 L21.5,3.2 L21.5,2.5 L21.5,0.9 L21.5,0.9 Z M21.2,0.3 C21,0.3 21,0.4 21,0.6 L21,3.2 L21,5.8 C21,6 21.1,6 21.2,6 L21.2,6 L23.8,6 L26.4,6 L26.4,6 C26.6,6 26.6,6 26.6,5.8 L26.6,0.5 C26.6,0.3 26.5,0.3 26.4,0.3 L26.4,0.3 L23.8,0.3 C22.9,0.3 22,0.3 21.2,0.3 L21.2,0.3 L21.2,0.3 Z" id="Shape" fill="#000000"></path>
                    <path d="M26,14.9 L26,19.5 L23.7,19.5 L21.4,19.5 L21.4,17.9 L21.4,17.2 L21.4,16.5 L21.4,14.9 L23.7,14.9 C24.5,14.9 25.3,14.9 26,14.9 L26,14.9 Z M26.4,14.4 L26.4,14.4 L23.8,14.4 L21.2,14.4 L21.2,14.4 C21,14.4 21,14.4 21,14.6 L21,17.2 L21,19.8 C21,20 21,20 21.2,20 L21.2,20 L23.8,20 L26.4,20 L26.4,20 C26.6,20 26.6,19.9 26.6,19.8 L26.6,14.5 C26.6,14.4 26.6,14.4 26.4,14.4 L26.4,14.4 Z" id="Shape" fill="#000000"></path>
                    <path d="M14.5,0.9 L16.8,0.9 L19.1,0.9 L19.1,5.5 L16.8,5.5 L14.5,5.5 L14.5,3.9 L14.5,3.2 L14.5,2.5 L14.5,0.9 L14.5,0.9 Z M14.2,0.3 C14,0.3 14,0.4 14,0.5 L14,3.1 L14,5.7 C14,5.9 14,5.9 14.2,5.9 L14.2,5.9 L16.8,5.9 L19.4,5.9 L19.4,5.9 C19.6,5.9 19.6,5.9 19.6,5.7 L19.6,0.4 C19.6,0.2 19.6,0.2 19.4,0.2 L19.4,0.2 L16.8,0.2 C15.9,0.3 15,0.3 14.2,0.3 L14.2,0.3 L14.2,0.3 Z" id="Shape" fill="#000000"></path>
                    <path d="M19.1,14.9 L19.1,16.5 L19.1,17.2 L19.1,17.9 L19.1,19.5 L16.8,19.5 L14.5,19.5 L14.5,14.9 L16.8,14.9 C17.5,14.9 18.3,14.9 19.1,14.9 L19.1,14.9 Z M19.4,14.4 L19.4,14.4 L16.8,14.4 L14.2,14.4 L14.2,14.4 C14,14.4 14,14.5 14,14.6 L14,19.8 C14,20 14,20 14.2,20 L14.2,20 L16.8,20 L19.4,20 L19.4,20 C19.6,20 19.6,19.9 19.6,19.8 L19.6,17.2 L19.6,14.6 C19.6,14.4 19.6,14.4 19.4,14.4 L19.4,14.4 Z" id="Shape" fill="#000000"></path>
                    <path d="M7.6,21.9 L9.9,21.9 L12.2,21.9 L12.2,23.5 L12.2,24.2 L12.2,24.9 L12.2,26.5 L9.9,26.5 L7.6,26.5 L7.6,21.9 L7.6,21.9 Z M7.3,21.3 C7.1,21.3 7.1,21.3 7.1,21.5 L7.1,26.8 C7.1,27 7.2,27 7.3,27 L7.3,27 L9.9,27 L12.5,27 L12.5,27 C12.7,27 12.7,27 12.7,26.8 L12.7,24.2 L12.7,21.6 C12.7,21.4 12.7,21.4 12.5,21.4 L12.5,21.4 L9.9,21.4 C9.1,21.3 8.2,21.3 7.3,21.3 L7.3,21.3 L7.3,21.3 Z" id="Shape" fill="#000000"></path>
                    <path d="M7.6,8 L9.9,8 L12.2,8 L12.2,9.6 L12.2,10.3 L12.2,11 L12.2,12.6 L9.9,12.6 L7.6,12.6 L7.6,8 L7.6,8 Z M7.3,7.5 C7.1,7.5 7.1,7.6 7.1,7.7 L7.1,13 C7.1,13.2 7.2,13.2 7.3,13.2 L7.3,13.2 L9.9,13.2 L12.5,13.2 L12.5,13.2 C12.7,13.2 12.7,13.1 12.7,13 L12.7,10.4 L12.7,7.7 C12.7,7.5 12.7,7.5 12.5,7.5 L12.5,7.5 L9.9,7.5 C9.1,7.5 8.2,7.5 7.3,7.5 L7.3,7.5 L7.3,7.5 Z" id="Shape" fill="#000000"></path>
                    <path d="M14.5,21.9 L16.8,21.9 L19.1,21.9 L19.1,26.5 L16.8,26.5 L14.5,26.5 L14.5,24.9 L14.5,24.2 L14.5,23.5 L14.5,21.9 L14.5,21.9 Z M14.2,21.3 C14,21.3 14,21.4 14,21.5 L14,24.1 L14,26.8 C14,27 14.1,27 14.2,27 L14.2,27 L16.8,27 L19.4,27 L19.4,27 C19.6,27 19.6,27 19.6,26.8 L19.6,21.5 C19.6,21.3 19.6,21.3 19.4,21.3 L19.4,21.3 L16.8,21.3 C15.9,21.3 15,21.3 14.2,21.3 L14.2,21.3 L14.2,21.3 Z" id="Shape" fill="#000000"></path>
                    <path d="M26,21.9 L26,23.5 L26,24.2 L26,24.9 L26,26.5 L23.7,26.5 L21.4,26.5 L21.4,21.9 L23.7,21.9 C24.5,21.9 25.3,21.9 26,21.9 L26,21.9 Z M26.4,21.3 L26.4,21.3 L23.8,21.3 L21.2,21.3 L21.2,21.3 C21,21.3 21,21.3 21,21.5 L21,26.7 C21,26.9 21.1,26.9 21.2,26.9 L21.2,26.9 L23.8,26.9 L26.4,26.9 L26.4,26.9 C26.6,26.9 26.6,26.8 26.6,26.7 L26.6,24.1 L26.6,21.5 C26.6,21.3 26.6,21.3 26.4,21.3 L26.4,21.3 Z" id="Shape" fill="#000000"></path>
                    <path d="M26,8 L26,9.6 L26,10.3 L26,11 L26,12.6 L23.7,12.6 L21.4,12.6 L21.4,8 L23.7,8 C24.5,8 25.3,8 26,8 L26,8 Z M26.4,7.5 L26.4,7.5 L23.8,7.5 L21.2,7.5 L21.2,7.5 C21,7.5 21,7.6 21,7.7 L21,13 C21,13.2 21,13.2 21.2,13.2 L21.2,13.2 L23.8,13.2 L26.4,13.2 L26.4,13.2 C26.6,13.2 26.6,13.2 26.6,13 L26.6,10.4 L26.6,7.8 C26.6,7.5 26.6,7.5 26.4,7.5 L26.4,7.5 Z" id="Shape" fill="#000000"></path>
                    <path d="M19.1,8 L19.1,9.6 L19.1,10.3 L19.1,11 L19.1,12.6 L16.8,12.6 L14.5,12.6 L14.5,8 L16.8,8 C17.5,8 18.3,8 19.1,8 L19.1,8 Z M19.4,7.5 L19.4,7.5 L16.8,7.5 L14.2,7.5 L14.2,7.5 C14,7.5 14,7.6 14,7.7 L14,13 C14,13.2 14,13.2 14.2,13.2 L14.2,13.2 L16.8,13.2 L19.4,13.2 L19.4,13.2 C19.6,13.2 19.6,13.2 19.6,13 L19.6,10.4 L19.6,7.8 C19.6,7.5 19.6,7.5 19.4,7.5 L19.4,7.5 Z" id="Shape" fill="#000000"></path>
                </g>
            </g>
        </g>
    </g>
</svg>