<?xml version="1.0" encoding="UTF-8"?>
<svg width="15px" height="14px" viewBox="0 0 15 14" version="1.1" xmlns="http://www.w3.org/2000/svg" xmlns:xlink="http://www.w3.org/1999/xlink">
    <!-- Generator: Sketch 43.2 (39069) - http://www.bohemiancoding.com/sketch -->
    <title>instagram</title>
    <desc>Created with Sketch.</desc>
    <defs></defs>
    <g id="Page-1" stroke="none" stroke-width="1" fill="none" fill-rule="evenodd">
        <g id="instagram" fill-rule="nonzero" fill="#FFFFFF">
            <g>
                <path d="M7.5,5 C6.4,5 5.5,5.9 5.5,7 C5.5,8.1 6.4,9 7.5,9 C8.6,9 9.5,8.1 9.5,7 C9.5,5.9 8.6,5 7.5,5 Z M7.5,8.3 C6.8,8.3 6.2,7.7 6.2,7 C6.2,6.3 6.8,5.7 7.5,5.7 C8.2,5.7 8.8,6.3 8.8,7 C8.8,7.7 8.2,8.3 7.5,8.3 Z" id="Shape"></path>
                <circle id="Oval" cx="9.6" cy="4.9" r="1"></circle>
                <path d="M7.5,0.1 C3.7,0.1 0.6,3.2 0.6,7 C0.6,10.8 3.7,13.9 7.5,13.9 C11.3,13.9 14.4,10.8 14.4,7 C14.4,3.2 11.3,0.1 7.5,0.1 Z M11.4,8.7 C11.4,9.9 10.4,10.9 9.2,10.9 L5.8,10.9 C4.6,10.9 3.6,9.9 3.6,8.7 L3.6,5.3 C3.6,4.1 4.6,3.1 5.8,3.1 L9.1,3.1 C10.3,3.1 11.3,4.1 11.3,5.3 L11.3,8.7 L11.4,8.7 Z" id="Shape"></path>
            </g>
        </g>
    </g>
</svg>