<?xml version="1.0" encoding="UTF-8"?>
<svg width="15px" height="14px" viewBox="0 0 15 14" version="1.1" xmlns="http://www.w3.org/2000/svg" xmlns:xlink="http://www.w3.org/1999/xlink">
    <!-- Generator: Sketch 43.2 (39069) - http://www.bohemiancoding.com/sketch -->
    <title>linkedin</title>
    <desc>Created with Sketch.</desc>
    <defs></defs>
    <g id="Page-1" stroke="none" stroke-width="1" fill="none" fill-rule="evenodd">
        <g id="linkedin" fill-rule="nonzero" fill="#FFFFFF">
            <g id="Shape">
                <path d="M7.5,0.1 C3.7,0.1 0.6,3.2 0.6,7 C0.6,10.8 3.7,13.9 7.5,13.9 C11.3,13.9 14.4,10.8 14.4,7 C14.4,3.2 11.3,0.1 7.5,0.1 Z M5.7,10.3 L4.1,10.3 L4.1,5.5 L5.7,5.5 L5.7,10.3 Z M4.9,4.8 L4.9,4.8 C4.4,4.8 4,4.5 4,4 C4,3.5 4.4,3.2 4.9,3.2 C5.4,3.2 5.8,3.6 5.8,4 C5.8,4.5 5.5,4.8 4.9,4.8 Z M11.5,10.3 L9.9,10.3 L9.9,7.7 C9.9,7.1 9.7,6.6 9.1,6.6 C8.7,6.6 8.4,6.9 8.3,7.2 C8.3,7.3 8.2,7.4 8.2,7.6 L8.2,10.3 L6.6,10.3 L6.6,5.5 L8.2,5.5 L8.2,6.2 C8.4,5.9 8.8,5.4 9.6,5.4 C10.7,5.4 11.4,6.1 11.4,7.6 L11.4,10.3 L11.5,10.3 Z"></path>
            </g>
        </g>
    </g>
</svg>