<?xml version="1.0" encoding="utf-8"?>
<!-- Generator: Adobe Illustrator 22.0.1, SVG Export Plug-In . SVG Version: 6.00 Build 0)  -->
<svg version="1.1" id="Capa_1" xmlns="http://www.w3.org/2000/svg" xmlns:xlink="http://www.w3.org/1999/xlink" x="0px" y="0px"
	 viewBox="0 0 48.8 60" style="enable-background:new 0 0 48.8 60;" xml:space="preserve">
<g>
	<g>
		<path class="st0" d="M24.4,0C15.1,0,7.5,7.6,7.5,16.9c0,10.3,14.7,30.3,15.4,31.1c0.4,0.5,0.9,0.8,1.5,0.8c0.6,0,1.2-0.3,1.5-0.8
			c0.6-0.8,15.4-20.8,15.4-31.1C41.2,7.6,33.7,0,24.4,0z M24.4,24.4c-4.1,0-7.5-3.4-7.5-7.5s3.4-7.5,7.5-7.5c4.1,0,7.5,3.4,7.5,7.5
			S28.5,24.4,24.4,24.4z"/>
		<path class="st0" d="M24.4,60C12.6,60,0,56.3,0,49.6c0-3.4,3.2-6.3,8.9-8.2c1-0.3,2,0.2,2.4,1.2c0.3,1-0.2,2-1.2,2.4
			c-4.7,1.6-6.3,3.5-6.3,4.7c0,2.7,8,6.7,20.6,6.7s20.6-4,20.6-6.7c0-1.2-1.7-3.1-6.3-4.7c-1-0.3-1.5-1.4-1.2-2.4
			c0.3-1,1.4-1.5,2.4-1.2c5.7,1.9,8.9,4.8,8.9,8.2C48.8,56.3,36.2,60,24.4,60z"/>
	</g>
</g>
</svg>
