<?xml version="1.0" encoding="UTF-8"?>
<svg width="15px" height="14px" viewBox="0 0 15 14" version="1.1" xmlns="http://www.w3.org/2000/svg" xmlns:xlink="http://www.w3.org/1999/xlink">
    <!-- Generator: Sketch 43.2 (39069) - http://www.bohemiancoding.com/sketch -->
    <title>twitter</title>
    <desc>Created with Sketch.</desc>
    <defs></defs>
    <g id="Page-1" stroke="none" stroke-width="1" fill="none" fill-rule="evenodd">
        <g id="twitter" fill-rule="nonzero" fill="#FFFFFF">
            <g id="Shape">
                <path d="M7.5,0.1 C3.7,0.1 0.6,3.2 0.6,7 C0.6,10.8 3.7,13.9 7.5,13.9 C11.3,13.9 14.4,10.8 14.4,7 C14.4,3.2 11.3,0.1 7.5,0.1 Z M11.1,5.6 L11.1,5.8 C11.1,6.1 11.1,6.5 11,6.8 C10.6,8.7 9,10.5 6.3,10.5 C5.4,10.5 4.5,10.2 3.7,9.8 L4.1,9.8 C4.9,9.8 5.6,9.5 6.2,9.1 C5.5,9.1 4.8,8.6 4.6,8 L4.9,8 C5.1,8 5.2,8 5.3,7.9 C4.7,7.8 4.3,7.4 4.1,6.9 C4,6.7 4,6.5 4,6.3 L4,6.3 C4.2,6.4 4.5,6.5 4.8,6.5 C4.4,6.2 4.1,5.7 4.1,5.1 C4.1,4.8 4.2,4.5 4.3,4.3 C5.1,5.3 6.4,6 7.8,6 L7.8,5.6 C7.8,4.7 8.6,4 9.5,4 C10,4 10.4,4.2 10.7,4.5 C11.1,4.4 11.4,4.3 11.8,4.1 C11.6,4.5 11.3,4.8 11,5 C11.3,5 11.7,4.9 12,4.7 C11.7,5.1 11.4,5.4 11.1,5.6 Z"></path>
            </g>
        </g>
    </g>
</svg>