<?xml version="1.0" encoding="utf-8"?>
<!-- Generator: Adobe Illustrator 22.0.0, SVG Export Plug-In . SVG Version: 6.00 Build 0)  -->
<svg version="1.1" id="Capa_1" xmlns="http://www.w3.org/2000/svg" xmlns:xlink="http://www.w3.org/1999/xlink" x="0px" y="0px"
	 viewBox="0 0 32.7 52" style="enable-background:new 0 0 32.7 52;" xml:space="preserve">
<style type="text/css">
	.st0{fill:#5EE8F7;}
	.st1{clip-path:url(#SVGID_2_);}
	.st2{opacity:0.43;fill:url(#SVGID_3_);enable-background:new    ;}
	.st3{fill:#E264F2;}
	.st4{fill:#5B3CA0;}
	.st5{fill:#A15DC8;}
	.st6{fill:#F1F482;}
</style>
<polygon id="_Trazado_de_recorte_7" class="st0" points="23.3,22.9 25.2,31.6 23,43.6 9.2,43.4 7,31.6 9,22.8 "/>
<g>
	<defs>
		<polygon id="SVGID_1_" points="23.3,22.9 25.2,31.6 23,43.6 9.2,43.4 7,31.6 9,22.8 		"/>
	</defs>
	<clipPath id="SVGID_2_">
		<use xlink:href="#SVGID_1_"  style="overflow:visible;"/>
	</clipPath>
	<g class="st1">
		
			<linearGradient id="SVGID_3_" gradientUnits="userSpaceOnUse" x1="6.6896" y1="-88.6399" x2="18.2196" y2="-78.1299" gradientTransform="matrix(1 0 0 -1 0 -55.3333)">
			<stop  offset="0" style="stop-color:#FFFFFF"/>
			<stop  offset="0.33" style="stop-color:#CDF8FC"/>
			<stop  offset="1" style="stop-color:#5EE8F7"/>
		</linearGradient>
		<polygon class="st2" points="6.2,38.6 23.8,20.4 13.9,21.9 6.2,29.9 		"/>
	</g>
</g>
<rect x="13.9" y="21.3" class="st3" width="4.5" height="1.3"/>
<rect x="15.6" y="8.1" class="st3" width="1.1" height="13.8"/>
<rect x="8.1" y="37.7" class="st4" width="16" height="1.1"/>
<rect x="8.6" y="39.2" class="st4" width="15.2" height="0.2"/>
<rect x="8.6" y="39.7" class="st4" width="15.2" height="0.2"/>
<rect x="8.6" y="40.3" class="st4" width="15.2" height="0.2"/>
<rect x="8.6" y="40.8" class="st4" width="15.2" height="0.2"/>
<rect x="8.6" y="41.3" class="st4" width="15.2" height="0.2"/>
<rect x="8.6" y="41.9" class="st4" width="15.2" height="0.2"/>
<rect x="8.8" y="42.4" class="st4" width="14.5" height="0.2"/>
<path class="st5" d="M23.1,23.4l1.7,8.1l-2.1,11.3h-13l-2-11.3l1.7-8.1H23.1 M23.9,22.3H8.4l-1.9,9.2L8.8,44h14.7l2.3-12.4
	L23.9,22.3L23.9,22.3z"/>
<path class="st6" d="M25.6,32.8c-0.7-0.2-3.3-0.4-3.5,1.5s1.5,2.5,2.7,3"/>
<path class="st6" d="M6.8,32.8c0.7-0.2,3.3-0.4,3.5,1.5s-1.5,2.5-2.7,3"/>
</svg>
