<?xml version="1.0" encoding="utf-8"?>
<!-- Generator: Adobe Illustrator 22.0.0, SVG Export Plug-In . SVG Version: 6.00 Build 0)  -->
<svg version="1.1" id="Capa_1" xmlns="http://www.w3.org/2000/svg" xmlns:xlink="http://www.w3.org/1999/xlink" x="0px" y="0px"
	 viewBox="0 0 35.7 61" style="enable-background:new 0 0 35.7 61;" xml:space="preserve">
<style type="text/css">
	.st0{fill:#5EE8F7;}
	.st1{clip-path:url(#SVGID_2_);}
	.st2{opacity:0.43;fill:url(#SVGID_3_);enable-background:new    ;}
	.st3{fill:#E264F2;}
	.st4{fill:#5B3CA0;}
	.st5{fill:#A15DC8;}
	.st6{fill:#F1F482;}
</style>
<polygon id="_Trazado_de_recorte_5" class="st0" points="27.1,25.3 29.5,35.8 26.8,50.4 9.9,50.2 7.3,35.9 9.7,25.1 "/>
<g>
	<defs>
		<polygon id="SVGID_1_" points="27.1,25.3 29.5,35.8 26.8,50.4 9.9,50.2 7.3,35.9 9.7,25.1 		"/>
	</defs>
	<clipPath id="SVGID_2_">
		<use xlink:href="#SVGID_1_"  style="overflow:visible;"/>
	</clipPath>
	<g class="st1">
		
			<linearGradient id="SVGID_3_" gradientUnits="userSpaceOnUse" x1="6.8751" y1="-68.6053" x2="20.9151" y2="-55.8153" gradientTransform="matrix(1 0 0 -1 0 -30.6667)">
			<stop  offset="0" style="stop-color:#FFFFFF"/>
			<stop  offset="0.33" style="stop-color:#CDF8FC"/>
			<stop  offset="1" style="stop-color:#5EE8F7"/>
		</linearGradient>
		<polygon class="st2" points="6.3,44.4 27.6,22.2 15.6,24 6.3,33.7 		"/>
	</g>
</g>
<rect x="15.7" y="23.4" class="st3" width="5.4" height="1.6"/>
<rect x="17.8" y="7.3" class="st3" width="1.3" height="16.8"/>
<rect x="8.6" y="43.3" class="st4" width="19.5" height="1.3"/>
<rect x="9.2" y="45.1" class="st4" width="18.5" height="0.2"/>
<rect x="9.2" y="45.8" class="st4" width="18.5" height="0.2"/>
<rect x="9.2" y="46.4" class="st4" width="18.5" height="0.2"/>
<rect x="9.2" y="47" class="st4" width="18.5" height="0.2"/>
<rect x="9.2" y="47.7" class="st4" width="18.5" height="0.2"/>
<rect x="9.2" y="48.3" class="st4" width="18.5" height="0.2"/>
<rect x="9.5" y="49" class="st4" width="17.6" height="0.2"/>
<path class="st5" d="M26.8,25.9l2,9.9l-2.5,13.8H10.6L8,35.8l2-9.9H26.8 M27.8,24.5H9L6.7,35.8l2.8,15.1h17.8l2.8-15.1L27.8,24.5
	L27.8,24.5z"/>
<path class="st6" d="M29.9,37.3c-0.9-0.3-4-0.4-4.3,1.8s1.8,3.1,3.3,3.6"/>
<path class="st6" d="M7,37.3c0.8-0.3,4-0.4,4.3,1.8S9.5,42.2,8,42.8"/>
</svg>
