<svg id="Capa_1" data-name="Capa 1" xmlns="http://www.w3.org/2000/svg" viewBox="0 0 64 64"><defs><style>.cls-1{opacity:0.7;}.cls-2{fill:#515151;}</style></defs><title>ANGULAR</title><g class="cls-1"><polygon class="cls-2" points="34.11 26.78 31.89 22.16 31.89 22.16 29.95 26.78 34.11 26.78"/><path class="cls-2" d="M31.86,14.85,21.35,18.59,23,32.49l8.9,4.94,9-5,1.75-13.9Zm4.54,17.2L35,28.73H29.09L27.78,32l-2.45,0,6.55-14.56,6.86,14.61Z"/><path class="cls-2" d="M23.35,46.76l-.18-.54H22l-.18.54H21l1.11-3.2h.95l1.11,3.2Zm-1.13-1.13H23l-.38-1.14Z"/><path class="cls-2" d="M26.64,43.56h.78v3.2h-.78l-1.3-2v2h-.78v-3.2h.78l1.3,2Z"/><path class="cls-2" d="M28.39,46.33a1.68,1.68,0,0,1,0-2.34,1.61,1.61,0,0,1,1.16-.46,1.63,1.63,0,0,1,.95.28,1.47,1.47,0,0,1,.58.78h-.93a.61.61,0,0,0-.58-.35.81.81,0,0,0-.63.25,1.09,1.09,0,0,0,0,1.34.8.8,0,0,0,.62.25.71.71,0,0,0,.45-.14.66.66,0,0,0,.23-.37h-.9V45h1.74v.59a1.56,1.56,0,0,1-.48.81,1.43,1.43,0,0,1-.46.29,1.51,1.51,0,0,1-.58.11A1.61,1.61,0,0,1,28.39,46.33Z"/><path class="cls-2" d="M31.56,45.47V43.57h.78v1.91a.64.64,0,0,0,.14.44.54.54,0,0,0,.41.15.55.55,0,0,0,.42-.15.62.62,0,0,0,.15-.44V43.57h.78v1.91a1.32,1.32,0,0,1-.2.73,1.19,1.19,0,0,1-.5.45,1.54,1.54,0,0,1-.66.14,1.34,1.34,0,0,1-.94-.35A1.25,1.25,0,0,1,31.56,45.47Z"/><path class="cls-2" d="M34.9,43.57h.78v2.6h1v.59H34.9Z"/><path class="cls-2" d="M39.11,46.76l-.18-.54H37.79l-.18.54h-.83l1.11-3.2h.95l1.11,3.2ZM38,45.63h.75l-.38-1.14Z"/><path class="cls-2" d="M41.1,45.52v1.24h-.78V43.57h1.26a1.23,1.23,0,0,1,.86.29.91.91,0,0,1,.31.69,1,1,0,0,1-.17.54.92.92,0,0,1-.55.37l.78,1.3h-.91l-.72-1.24Zm0-1.36v.77h.48a.36.36,0,0,0,.38-.38.39.39,0,0,0-.1-.28.37.37,0,0,0-.28-.11Z"/></g></svg>