<?xml version="1.0" encoding="UTF-8"?>
<svg width="53px" height="52px" viewBox="0 0 53 52" version="1.1" xmlns="http://www.w3.org/2000/svg" xmlns:xlink="http://www.w3.org/1999/xlink">
    <!-- Generator: Sketch 43.2 (39069) - http://www.bohemiancoding.com/sketch -->
    <title>location</title>
    <desc>Created with Sketch.</desc>
    <defs>
        <linearGradient x1="0.161883408%" y1="49.953125%" x2="100.190135%" y2="49.953125%" id="linearGradient-1">
            <stop stop-color="#E777CB" offset="0.4326923%"></stop>
            <stop stop-color="#7F56C5" offset="100%"></stop>
        </linearGradient>
        <linearGradient x1="0.251333333%" y1="49.1688889%" x2="99.89%" y2="49.1688889%" id="linearGradient-2">
            <stop stop-color="#00FF73" offset="0.1081731%"></stop>
            <stop stop-color="#B7EA4C" offset="100%"></stop>
        </linearGradient>
        <linearGradient x1="0.171034483%" y1="50.0847561%" x2="99.897931%" y2="50.0847561%" id="linearGradient-3">
            <stop stop-color="#00FF73" offset="0.1081731%"></stop>
            <stop stop-color="#B7EA4C" offset="100%"></stop>
        </linearGradient>
        <linearGradient x1="-0.169273743%" y1="49.8589404%" x2="100.105587%" y2="49.8589404%" id="linearGradient-4">
            <stop stop-color="#E777CB" offset="0.4326923%"></stop>
            <stop stop-color="#7F56C5" offset="100%"></stop>
        </linearGradient>
        <linearGradient x1="90.5138776%" y1="25.4608059%" x2="28.5697959%" y2="95.0794872%" id="linearGradient-5">
            <stop stop-color="#4BD8F9" offset="0.4326923%"></stop>
            <stop stop-color="#70E0FA" offset="7.6623%"></stop>
            <stop stop-color="#96E8FB" offset="16.51%"></stop>
            <stop stop-color="#B7EFFD" offset="26.07%"></stop>
            <stop stop-color="#D1F5FD" offset="36.31%"></stop>
            <stop stop-color="#E6F9FE" offset="47.48%"></stop>
            <stop stop-color="#F4FDFF" offset="60.07%"></stop>
            <stop stop-color="#FCFEFF" offset="75.24%"></stop>
            <stop stop-color="#FFFFFF" offset="100%"></stop>
        </linearGradient>
    </defs>
    <g id="Page-1" stroke="none" stroke-width="1" fill="none" fill-rule="evenodd">
        <g id="location" fill-rule="nonzero">
            <g>
                <circle id="Oval" fill="#FFFFFF" cx="26.4" cy="25.7" r="25.7"></circle>
                <g id="Group" transform="translate(11.000000, 11.000000)">
                    <polygon id="Shape" fill="#FC6DC9" points="1.1 14.3 1.3 17.5 1.9 19.7 2.5 20 5.5 18.3 8.4 18.2 11.6 18.7 14.6 19.3 17.2 19.5 20.3 19.1 23 17.3 24.7 15 26.1 11.1 26.2 8.3 25.8 6 25.3 4.3 23.8 3.2 24.4 5 24.4 7.4 24 9.9 22.5 11.9 20.8 13.5 18 14.8 14.3 15.5 9.9 15.7 6.4 15.4 4.6 14.5 3.1 12.6 2.4 10 2.4 8.6 1.5 11.3 1.1 13.8"></polygon>
                    <polygon id="Shape" fill="url(#linearGradient-1)" points="6.5 25.8 9.8 26.6 13.2 26.9 15.4 26.5 18 25.8 19.7 25 21.6 24.9 23.9 24 26.5 22.2 28 20.6 28.8 19.4 27.8 22.1 25 25.2 22.3 27.2 20.2 28.3 16.9 29 13.6 29 10.2 28.2"></polygon>
                    <polygon id="Shape" fill="url(#linearGradient-2)" points="4.3 23.8 4.7 23.2 7.4 22.4 10.4 22.4 13.3 23.6 16.3 24.7 19.3 25.1 17.3 26.2 14 26.9 10.2 26.7 7.2 26 5.2 25"></polygon>
                    <polygon id="Shape" fill="url(#linearGradient-3)" points="11.5 18.5 13.8 17.6 16.7 16.3 18.8 15.1 20.8 13.4 23.1 11.4 24 9.3 24.4 6.5 24.2 4.6 23.6 3.1 25.1 4.4 25.6 4.9 25.9 7.1 26 9.6 25.5 12.3 24.7 14.5 22.7 17.4 20.3 19.1 16.9 19.5 13.2 19"></polygon>
                    <path d="M4,23.5 L5.3,23.1 L7.7,22.3 L10.2,22.5 L13.3,23.6 L16.5,24.7 L19.3,25.2 L21.8,24.9 L24,23.9 L26.5,22.2 L28.2,20.5 L29.3,18.2 L29.6,15.3 L29.5,13 L28.8,10 L27.5,7.2 L25.7,4.9 L25.7,6.9 L25.9,9.6 L25.8,11 L25.4,12.9 L24.8,14.4 L23.9,15.9 L23,17 L21.8,18 L20.6,18.8 L19,19.2 L17.8,19.4 L16,19.3 L12.5,18.6 L9.8,18 L7.5,18 L5.8,18.3 L4.2,18.8 L3,19.4 L2.1,19.9 L4,23.5 Z" id="Shape" fill="#4BD8F9"></path>
                    <polygon id="Shape" fill="url(#linearGradient-4)" points="3.2 7.3 2.4 9.2 2.8 11.4 4.5 14.2 7.1 15.4 10.1 15.6 12.5 14.2 15.6 12.4 18 10.1 19.6 7.7 20.3 5.3 20.1 3.5 19.1 1.8 18.1 0.7 14.4 0.5 11.2 1.2 12.2 1.8 13.1 2.9 13.3 4.7 11.9 7.5 9.8 9.5 7.3 10.6 4.7 10.1 3.7 8.6 3.4 7.4"></polygon>
                    <polygon id="Shape" fill="#F9E33E" points="18.7 0.9 19.4 2.3 20.3 4.6 19.8 7.2 18.2 9.8 14.8 13.2 10.4 15.2 9.7 15.5 13 15.6 17.4 14.8 20.7 13.6 23.4 10.8 24.4 8 24.3 5.4 24.1 3.4 21.7 2"></polygon>
                    <polygon id="Shape" fill="#7F56C5" points="4.2 5.7 3.4 7.6 4.1 9.5 6.3 10.7 8.9 10 11.5 7.9 13.1 5.4 13.3 3.3 12.2 1.8 11.2 1.1 7.6 2.8"></polygon>
                    <path d="M5.1,24.8 C9.9,27.7 20.8,26.7 24.4,19.6 C26.4,15.7 27.5,5.9 21.4,1.8 L24.8,4.2 L27.1,6.6 L29.1,10.5 L29.6,14.6 L29.6,16.9 L28.2,21 L25.6,25.1 L20.6,28 L18,28.8 L14.3,29.1 L10.9,28.3 L7.2,26.8 L5.1,24.8 Z" id="Shape" fill="url(#linearGradient-5)" opacity="0.36"></path>
                    <path d="M15.4,0.8 C23.1,0.8 29.4,7.1 29.4,14.8 C29.4,22.5 23.1,28.8 15.4,28.8 C7.7,28.8 1.4,22.5 1.4,14.8 C1.4,7.1 7.7,0.8 15.4,0.8 L15.4,0.8 Z M15.4,0.2 C7.4,0.2 0.8,6.7 0.8,14.8 C0.8,22.8 7.3,29.4 15.4,29.4 C23.4,29.4 30,22.9 30,14.8 C29.9,6.7 23.4,0.2 15.4,0.2 L15.4,0.2 Z" id="Shape" fill="#000000"></path>
                    <path d="M6.7,10.8 C5.8,10.8 5,10.5 4.3,10 C3.2,9.1 2.8,7.3 4.2,5.5 L4.6,5.8 C3.6,7.2 3.6,8.7 4.7,9.6 C6.1,10.8 8.8,10.6 11.2,7.9 C13,6 13.5,4 12.7,2.6 C12.2,1.8 11.3,1.4 10.5,1.6 L10.4,1.1 C11.5,0.8 12.6,1.3 13.3,2.3 C14.3,3.9 13.7,6.1 11.7,8.2 C9.9,10.1 8.1,10.8 6.7,10.8 Z" id="Shape" fill="#000000"></path>
                    <path d="M8.3,15.8 L7.9,15.8 C6.1,15.7 4.7,15 3.7,13.8 C2.3,12 2.2,9.5 2.4,8.4 L2.9,8.5 C2.8,9.3 2.7,11.7 4.1,13.5 C5,14.6 6.2,15.2 7.9,15.3 C12.1,15.6 18.1,11.3 19.7,6.9 C20.3,5.3 20.4,2.9 17.9,1.1 L18.2,0.6 C20.4,2.2 21.1,4.4 20.2,7 C18.6,11.4 12.6,15.8 8.3,15.8 Z" id="Shape" fill="#000000"></path>
                    <path d="M10.7,15.8 C9.8,15.8 8.9,15.8 8.1,15.7 L8.1,15.1 C13,15.4 19.4,15 22.4,11.5 C24,9.5 24.5,6.8 23.6,3.3 L24.1,3.2 C25,6.9 24.5,9.8 22.7,11.9 C20.3,15 15.2,15.8 10.7,15.8 Z" id="Shape" fill="#000000"></path>
                    <path d="M11,18.8 L10.9,18.3 C12.5,17.9 17.3,16.3 20.2,13.6 L20.6,14 C16.9,17.3 11,18.7 11,18.8 Z" id="Shape" fill="#000000"></path>
                    <path d="M2.3,20.3 L2,19.8 C2.2,19.7 2.4,19.6 2.6,19.5 C4.5,18.4 5.9,17.7 9.2,17.9 C10.1,18 11.2,18.2 12.3,18.5 C15.7,19.3 19.6,20.1 22.5,17.1 C26.4,13.1 26,8.2 25,4.7 L25.5,4.5 C26.5,8.1 26.9,13.2 22.9,17.4 C19.8,20.6 15.5,19.7 12.2,18.9 C11.1,18.7 10,18.4 9.2,18.4 C6,18.2 4.8,18.9 2.9,19.9 C2.7,20.1 2.5,20.2 2.3,20.3 Z" id="Shape" fill="#000000"></path>
                    <path d="M19.8,25.4 C17.3,25.4 14.6,24.3 12.5,23.5 C11.4,23.1 10.4,22.7 9.8,22.6 C8.9,22.5 6.3,22.3 4.3,23.8 L4,23.4 C6.2,21.7 9,22 9.9,22.1 C10.6,22.2 11.5,22.5 12.7,23 C15.4,24.1 19,25.5 22,24.5 C26.2,23 28.4,20 28.8,18.5 L29.3,18.6 C28.9,20.3 26.6,23.4 22.1,25 C21.5,25.3 20.6,25.4 19.8,25.4 Z" id="Shape" fill="#000000"></path>
                    <path d="M12.6,27.1 C9.9,27.1 7.4,26.4 5.6,25.5 L5.8,25 C9.1,26.6 14.6,27.5 19.3,24.8 L19.6,25.3 C17.3,26.6 14.9,27.1 12.6,27.1 Z" id="Shape" fill="#000000"></path>
                </g>
            </g>
        </g>
    </g>
</svg>