<svg id="Capa_1" data-name="Capa 1" xmlns="http://www.w3.org/2000/svg" viewBox="0 0 25 25"><defs><style>.cls-1{fill:#fff;}</style></defs><title>icono2</title><path class="cls-1" d="M12.5,25A12.5,12.5,0,1,1,25,12.5,12.51,12.51,0,0,1,12.5,25ZM12.5.26A12.24,12.24,0,1,0,24.74,12.5,12.25,12.25,0,0,0,12.5.26Z"/><path class="cls-1" d="M12.48,19.62h0a.13.13,0,0,1-.11-.06l-1.79-2.82a.13.13,0,0,1,0-.16l.89-.89a.13.13,0,0,1,.19,0l.82.82.82-.82a.13.13,0,0,1,.19,0l.89.89a.13.13,0,0,1,0,.17l-1.82,2.82A.13.13,0,0,1,12.48,19.62Zm-1.62-2.93,1.62,2.56,1.65-2.56L13.41,16l-.82.82a.13.13,0,0,1-.19,0L11.59,16Z"/><path class="cls-1" d="M12.48,19.62a.13.13,0,0,1-.11-.06l-1-1.57a.13.13,0,0,1,.11-.2h2a.13.13,0,0,1,.11.2l-1,1.57a.13.13,0,0,1-.11.06ZM11.71,18l.77,1.2.77-1.2Z"/><path class="cls-1" d="M13.41,15.91a.13.13,0,0,1-.13-.13V9.86a.13.13,0,0,1,.26,0v5.92A.13.13,0,0,1,13.41,15.91Z"/><path class="cls-1" d="M11.59,15.91a.13.13,0,0,1-.13-.13V9.86a.13.13,0,0,1,.26,0v5.92A.13.13,0,0,1,11.59,15.91Z"/><path class="cls-1" d="M14.3,16.8h-.06a.13.13,0,0,1-.06-.18,1.54,1.54,0,0,0,.14-.8V7.55a2.34,2.34,0,0,0-.51-1.61,1.64,1.64,0,0,0-1.32-.44,1.67,1.67,0,0,0-1.33.44,2.33,2.33,0,0,0-.51,1.6v8.27a1.54,1.54,0,0,0,.14.8.13.13,0,1,1-.24.12,1.79,1.79,0,0,1-.17-.92V7.55A2.56,2.56,0,0,1,11,5.76a1.92,1.92,0,0,1,1.52-.52A1.91,1.91,0,0,1,14,5.76a2.56,2.56,0,0,1,.58,1.8V15.8a1.79,1.79,0,0,1-.17.92A.13.13,0,0,1,14.3,16.8Z"/><path class="cls-1" d="M14.46,8.25H10.53a.13.13,0,1,1,0-.26h3.93a.13.13,0,0,1,0,.26Z"/><path class="cls-1" d="M14.47,10H10.53a.13.13,0,1,1,0-.26h3.93a.13.13,0,1,1,0,.26Z"/><path class="cls-1" d="M14.46,9.05H10.53a.13.13,0,1,1,0-.26h3.93a.13.13,0,0,1,0,.26Z"/><path class="cls-1" d="M11.2,10a.13.13,0,0,1-.13-.13V8.92a.13.13,0,0,1,.26,0v.94A.13.13,0,0,1,11.2,10Z"/><path class="cls-1" d="M11.85,10a.13.13,0,0,1-.13-.13V8.92a.13.13,0,0,1,.26,0v.94A.13.13,0,0,1,11.85,10Z"/><path class="cls-1" d="M12.5,10a.13.13,0,0,1-.13-.13V8.92a.13.13,0,0,1,.26,0v.94A.13.13,0,0,1,12.5,10Z"/><path class="cls-1" d="M13.15,10A.13.13,0,0,1,13,9.86V8.92a.13.13,0,1,1,.26,0v.94A.13.13,0,0,1,13.15,10Z"/><path class="cls-1" d="M13.8,10a.13.13,0,0,1-.13-.13V8.92a.13.13,0,1,1,.26,0v.94A.13.13,0,0,1,13.8,10Z"/></svg>