<svg id="Capa_1" data-name="Capa 1" xmlns="http://www.w3.org/2000/svg" viewBox="0 0 25 25"><defs><style>.cls-1{fill:#fff;}</style></defs><title>icono1</title><path class="cls-1" d="M12.51,7.29a1,1,0,0,1,.7.28.53.53,0,0,0,.38.15h.34l.25,0a1,1,0,0,1,.86,1,.55.55,0,0,0,.16.39,1,1,0,0,1,.09,1.26.45.45,0,0,0-.07.41.88.88,0,0,1,0,.54.34.34,0,0,0,.36.47H16a3.51,3.51,0,0,1-1,3.64c-.09.09-.2.17-.3.26l-.23.19a2,2,0,0,0-.74,1.66c0,.23,0,.49,0,.81a.42.42,0,0,0,.11.31l.09.06a.45.45,0,0,0-.23.32,1.18,1.18,0,0,1-2.29,0,.4.4,0,0,0-.21-.29l.08-.06a.39.39,0,0,0,.1-.3c0-.13,0-.26,0-.4v-.19c0-.05,0-.1,0-.15a2.63,2.63,0,0,0-.06-.69,2.1,2.1,0,0,0-.78-1.13A4.43,4.43,0,0,1,9.63,15,3.52,3.52,0,0,1,9,11.79h.46a.35.35,0,0,0,.3-.13.36.36,0,0,0,0-.33.91.91,0,0,1,0-.56.42.42,0,0,0-.06-.39,1,1,0,0,1,.1-1.31A.48.48,0,0,0,10,8.75a1,1,0,0,1,1.06-1h.18A1.11,1.11,0,0,0,12,7.47a.89.89,0,0,1,.55-.19m0-.29a1.19,1.19,0,0,0-.73.25.83.83,0,0,1-.53.19h-.18A1.31,1.31,0,0,0,9.71,8.74a.19.19,0,0,1-.05.14,1.27,1.27,0,0,0-.13,1.67.13.13,0,0,1,0,.13,1.21,1.21,0,0,0,0,.73c0,.07,0,.09-.06.09H8.9c-.08,0-.11,0-.13.11a3.84,3.84,0,0,0,.62,3.53,4.68,4.68,0,0,0,.93.9A1.8,1.8,0,0,1,11,17a3.23,3.23,0,0,1,.05.77c0,.22,0,.41,0,.6s0,.11-.09.11H10.6c-.06,0-.08,0-.08.09s0,.22,0,.32,0,.09.08.09H11c.07,0,.09,0,.11.1a1.48,1.48,0,0,0,1.42,1.15h0a1.47,1.47,0,0,0,1.42-1.11c0-.1.06-.14.16-.14h0l.24,0a.16.16,0,0,0,.13,0c.07-.09,0-.26,0-.39s0-.09-.07-.09h-.35c-.07,0-.1,0-.1-.12,0-.28,0-.55,0-.83a1.72,1.72,0,0,1,.64-1.43c.18-.16.38-.29.55-.46a3.83,3.83,0,0,0,1.1-4c0-.1-.07-.15-.17-.15h-.56c-.06,0-.08,0-.06-.09a1.17,1.17,0,0,0,0-.72.15.15,0,0,1,0-.15,1.27,1.27,0,0,0-.11-1.63.26.26,0,0,1-.08-.19,1.3,1.3,0,0,0-1.1-1.27,1.74,1.74,0,0,0-.3,0h-.34a.25.25,0,0,1-.18-.07,1.33,1.33,0,0,0-.9-.36Z"/><rect class="cls-1" x="9.47" y="11.44" width="6.16" height="0.29"/><rect class="cls-1" x="12.37" y="7.07" width="0.29" height="4.54"/><rect class="cls-1" x="12.37" y="14.23" width="0.29" height="3.25"/><rect class="cls-1" x="11.13" y="17.33" width="2.77" height="0.29"/><rect class="cls-1" x="10.64" y="18.59" width="3.71" height="0.29"/><path class="cls-1" d="M13.6,14.38H11.43a.15.15,0,1,1,0-.29H13.6a.15.15,0,0,1,0,.29Z"/><path class="cls-1" d="M13.38,11.23h-.11a.15.15,0,0,1,0-.29.71.71,0,0,0,.51-.15.61.61,0,0,0,.23-.44.14.14,0,0,1,.16-.13.15.15,0,0,1,.13.16A.91.91,0,0,1,14,11,1,1,0,0,1,13.38,11.23Z"/><path class="cls-1" d="M14.2,9.35a.15.15,0,0,1-.15-.13.61.61,0,0,0-.23-.44.71.71,0,0,0-.51-.15.15.15,0,0,1,0-.29,1,1,0,0,1,.73.21.91.91,0,0,1,.34.64.15.15,0,0,1-.13.16Z"/><path class="cls-1" d="M11.61,11.23A1,1,0,0,1,11,11a.91.91,0,0,1-.34-.64.15.15,0,0,1,.13-.16.15.15,0,0,1,.16.13.61.61,0,0,0,.23.44.71.71,0,0,0,.51.15.15.15,0,0,1,.17.12.15.15,0,0,1-.12.17Z"/><path class="cls-1" d="M10.79,9.35h0a.15.15,0,0,1-.13-.16A.91.91,0,0,1,11,8.54a1,1,0,0,1,.73-.21.15.15,0,0,1,.12.17.15.15,0,0,1-.17.12.72.72,0,0,0-.51.15.61.61,0,0,0-.23.44A.15.15,0,0,1,10.79,9.35Z"/><path class="cls-1" d="M18.64,10.51H17.08a.15.15,0,1,1,0-.29h1.57a.15.15,0,0,1,0,.29Z"/><path class="cls-1" d="M15.73,7.25a.15.15,0,0,1-.1-.25l1.11-1.11a.15.15,0,0,1,.21.21L15.83,7.21A.15.15,0,0,1,15.73,7.25Z"/><path class="cls-1" d="M12.52,5.92a.15.15,0,0,1-.15-.15V4.2a.15.15,0,0,1,.29,0V5.77A.15.15,0,0,1,12.52,5.92Z"/><path class="cls-1" d="M9.27,7.25a.15.15,0,0,1-.1,0L8.06,6.1a.15.15,0,0,1,.21-.21L9.37,7a.15.15,0,0,1-.1.25Z"/><path class="cls-1" d="M7.93,10.48H6.36a.15.15,0,0,1,0-.29H7.93a.15.15,0,0,1,0,.29Z"/><path class="cls-1" d="M12.5,25A12.5,12.5,0,1,1,25,12.5,12.51,12.51,0,0,1,12.5,25ZM12.5.29A12.21,12.21,0,1,0,24.71,12.5,12.22,12.22,0,0,0,12.5.29Z"/></svg>