<?xml version="1.0" encoding="utf-8"?>
<!-- Generator: Adobe Illustrator 21.1.0, SVG Export Plug-In . SVG Version: 6.00 Build 0)  -->
<svg version="1.1" id="Capa_1" xmlns="http://www.w3.org/2000/svg" xmlns:xlink="http://www.w3.org/1999/xlink" x="0px" y="0px"
	 viewBox="0 0 34 50.7" style="enable-background:new 0 0 34 50.7;" xml:space="preserve">
<style type="text/css">
	.st0{fill:#838C8A;}
	.st1{clip-path:url(#SVGID_2_);}
	.st2{fill:#5C6361;}
	.st3{fill:#E6FFCE;}
	.st4{fill:#5A6865;}
	.st5{clip-path:url(#SVGID_4_);}
	.st6{fill:#3C4442;}
</style>
<title>SERVICES_MOBILE_V5</title>
<g>
	<g id="Capa_1_1_">
		<path id="_Trazado_de_recorte_7" class="st0" d="M24.1,10.7c-1.4-0.4-3,0.2-3.8,1.4c-0.8-1.3-2.4-1.9-3.8-1.4
			c-1.6,0.5-2.6,2-2.7,3.7h0.7c0.1-1.3,0.9-2.5,2.2-2.9c1.2-0.4,2.3,0.1,3.2,1.5v30.9h0.7V13c0.9-1.3,2-1.8,3.2-1.5
			c1.3,0.4,2.1,1.6,2.2,2.9h0.7C26.7,12.7,25.7,11.3,24.1,10.7z"/>
		<g>
			<g>
				<g>
					<defs>
						<path id="SVGID_1_" d="M24.1,10.7c-1.4-0.4-3,0.2-3.8,1.4c-0.8-1.3-2.4-1.9-3.8-1.4c-1.6,0.5-2.6,2-2.7,3.7h0.7
							c0.1-1.3,0.9-2.5,2.2-2.9c1.2-0.4,2.3,0.1,3.2,1.5v30.9h0.7V13c0.9-1.3,2-1.8,3.2-1.5c1.3,0.4,2.1,1.6,2.2,2.9h0.7
							C26.7,12.7,25.7,11.3,24.1,10.7z"/>
					</defs>
					<clipPath id="SVGID_2_">
						<use xlink:href="#SVGID_1_"  style="overflow:visible;"/>
					</clipPath>
					<g class="st1">
						<rect x="10.2" y="7.9" class="st2" width="10.1" height="37.1"/>
					</g>
				</g>
			</g>
		</g>
		<ellipse id="_Elipse_3" class="st3" cx="26.5" cy="16.6" rx="1.8" ry="1.4"/>
		<path class="st0" d="M23.5,17c1.2-4.1,5.3-3.4,6,0H23.5z"/>
		<ellipse id="_Elipse_4" class="st3" cx="14.2" cy="16.6" rx="1.8" ry="1.4"/>
		<path class="st0" d="M11.2,17c1.2-4.1,5.3-3.4,6,0H11.2z"/>
		<rect x="19" y="19.1" class="st0" width="2.5" height="0.6"/>
		<path id="_Trazado_de_recorte_8" class="st4" d="M21.5,47.1c0,0.6-0.5,1.1-1.1,1.1h-0.2c-0.6,0-1.1-0.5-1.1-1.1v-3.2
			c0-0.6,0.5-1.1,1.1-1.1h0.2c0.6,0,1.1,0.5,1.1,1.1V47.1z"/>
		<g>
			<g>
				<g>
					<defs>
						<path id="SVGID_3_" d="M21.5,47.1c0,0.6-0.5,1.1-1.1,1.1h-0.2c-0.6,0-1.1-0.5-1.1-1.1v-3.2c0-0.6,0.5-1.1,1.1-1.1h0.2
							c0.6,0,1.1,0.5,1.1,1.1V47.1z"/>
					</defs>
					<clipPath id="SVGID_4_">
						<use xlink:href="#SVGID_3_"  style="overflow:visible;"/>
					</clipPath>
					<g class="st5">
						<rect x="17.5" y="40.8" class="st6" width="2.8" height="7.4"/>
					</g>
				</g>
			</g>
		</g>
		<rect x="18.5" y="47.5" class="st6" width="3.7" height="0.8"/>
	</g>
</g>
</svg>
