<?xml version="1.0" encoding="UTF-8"?>
<svg width="53px" height="52px" viewBox="0 0 53 52" version="1.1" xmlns="http://www.w3.org/2000/svg" xmlns:xlink="http://www.w3.org/1999/xlink">
    <!-- Generator: Sketch 43.2 (39069) - http://www.bohemiancoding.com/sketch -->
    <title>icono2_advantages</title>
    <desc>Created with Sketch.</desc>
    <defs>
        <linearGradient x1="-0.0284021626%" y1="51.0626798%" x2="99.8050684%" y2="51.0626798%" id="linearGradient-1">
            <stop stop-color="#E777CB" offset="0.4326923%"></stop>
            <stop stop-color="#7F56C5" offset="100%"></stop>
        </linearGradient>
        <linearGradient x1="-0.313964865%" y1="52.9298813%" x2="99.7956876%" y2="52.9298813%" id="linearGradient-2">
            <stop stop-color="#00FF73" offset="0.1081731%"></stop>
            <stop stop-color="#B7EA4C" offset="100%"></stop>
        </linearGradient>
        <linearGradient x1="0.330368838%" y1="49.9899551%" x2="100.100344%" y2="49.9899551%" id="linearGradient-3">
            <stop stop-color="#E777CB" offset="0.4326923%"></stop>
            <stop stop-color="#7F56C5" offset="100%"></stop>
        </linearGradient>
    </defs>
    <g id="Page-1" stroke="none" stroke-width="1" fill="none" fill-rule="evenodd">
        <g id="cultural-fit" fill-rule="nonzero">
            <g id="icono2_advantages">
                <circle id="Oval" fill="#FFFFFF" cx="26.4" cy="25.7" r="25.7"></circle>
                <g id="Group" transform="translate(10.000000, 10.000000)">
                    <path d="M2.9,23 C3.9,23.8 5.6,23.5 6.7,24.3 C11,25.3 14.8,26 19.2,25.7 C22.5,25.5 25.1,24.7 28.3,23.8 C28.7,23.7 29.3,23.5 29.6,23.2 C29.8,23 30.2,23.4 30.3,23.6 C30.7,24.6 30.8,25.8 30.3,26.7 C30.1,27.1 29.8,27.9 29.2,28.2 C26.5,29 23.8,29.5 21,29.8 C18.3,30.1 15.5,30.1 12.8,29.9 C9.7,29.7 6,29.3 3.3,27.9 C2.8,27.8 2.6,26.7 2.4,26.3 C1.8,25.4 2.4,24.1 2.9,23 Z" id="Shape" fill="url(#linearGradient-1)"></path>
                    <path d="M3.7,28.2 C6.9,29.4 23.5,31.7 29.9,23 L30.6,24.4 L30.6,26.2 L29.7,27.7 L29,28.7 L26.5,29.1 L22.4,30.1 L17.9,30.1 L12.2,30.1 L5.5,29.3 L3.7,28.2 Z" id="Shape" fill="#FFFFFF" opacity="0.3"></path>
                    <polygon id="Shape" fill="#4BD8F9" points="3 20.1 2.9 21 3.2 21.9 14.8 24.8 29.7 22 29.8 20.9 29.4 19.9 24.1 17.9 4.8 18"></polygon>
                    <path d="M3,20.8 C5.3,20 10.4,17.8 16,21.1 L16.8,21.1 C16.8,21.1 21.2,17.2 29.7,20.7 L29.2,18.8 L17,17.5 L3.1,18.8 L3,20.8 Z" id="Shape" fill="#49C6DB"></path>
                    <path d="M3,21.7 C3.2,21.7 3.5,21.7 3.7,21.6 C3.9,21.5 3.9,21.6 4,21.7 C4.3,22 4.7,22.1 5.1,21.9 C5.3,21.8 5.4,21.9 5.5,22 C5.5,22.1 5.6,22.1 5.6,22.1 C6,22.4 6.4,22 6.7,22.2 C7.1,22.4 7.4,22.6 7.8,22.4 C8,22.3 8.1,22.3 8.2,22.5 C8.6,22.9 9,22.6 9.4,22.6 C9.7,22.6 10.1,23.1 10.6,22.8 C10.8,22.7 10.9,22.6 11.1,22.8 C11.1,22.9 11.2,22.9 11.3,22.9 C11.7,23.2 12.1,22.6 12.4,22.9 C12.8,23.2 13.1,23.2 13.5,22.9 C13.6,22.8 13.7,22.9 13.7,22.9 C13.8,23 13.9,23 13.9,23.1 C14.3,23.4 14.7,22.8 15,23 C15.4,23.2 15.8,23.3 16.1,23 C16.2,22.9 16.3,22.9 16.5,23 C16.6,23.1 16.6,23.1 16.7,23.1 C17.1,23.4 17.5,22.8 17.9,23 C18.3,23.2 18.7,23.3 19,22.9 C19.1,22.8 19.1,22.8 19.2,22.9 C19.2,22.9 19.3,23 19.4,23 C19.9,23.2 20.2,22.7 20.5,22.8 C20.9,22.9 21.3,23.1 21.7,22.7 C21.9,22.6 21.9,22.6 22.1,22.7 C22.5,22.9 22.8,22.9 23.1,22.6 C23.2,22.4 23.3,22.5 23.5,22.6 C23.9,22.8 24.2,22.8 24.5,22.5 C24.6,22.3 24.7,22.4 24.9,22.4 C25.4,22.6 25.7,22.1 26.1,22.1 C26.5,22.1 26.9,22.3 27.3,21.9 C27.4,21.7 27.5,21.7 27.7,21.8 C28,21.9 28.3,21.9 28.5,21.8 C28.8,21.6 29,21.4 29.4,21.6 L29.8,21.6 C29.6,22.2 30.4,22.9 28.7,23.4 C24.4,24.7 20.1,25.6 15.5,25.5 C11.7,25.4 7.8,24.5 4.2,23.4 C2.6,23 3.2,22.4 3,21.7 Z" id="Shape" fill="#FC6DC9"></path>
                    <path d="M17,23.8 C16.9,23.8 16.7,23.8 16.6,23.7 C16.6,23.7 16.6,23.7 16.5,23.7 L16.4,23.6 L16.4,23.6 C15.8,24 15.4,23.8 15,23.6 L15,23.6 C15,23.6 14.9,23.7 14.8,23.7 C14.6,23.8 14.2,24 13.9,23.7 C13.8,23.6 13.7,23.6 13.7,23.5 C13.3,23.8 12.8,23.7 12.3,23.4 C12.3,23.4 12.2,23.4 12,23.5 C11.8,23.6 11.5,23.7 11.1,23.5 L11.1,23.5 C11,23.5 11,23.4 10.9,23.3 L10.9,23.3 C10.9,23.3 10.9,23.3 10.8,23.4 C10.4,23.7 10,23.4 9.7,23.3 C9.6,23.3 9.5,23.2 9.5,23.2 C9.4,23.2 9.3,23.2 9.2,23.3 C8.9,23.4 8.5,23.5 8.1,23.1 L8,23 L8,23 C7.4,23.3 7,23 6.6,22.8 L6.4,22.8 C6.2,22.8 5.8,22.9 5.5,22.6 C5.4,22.5 5.4,22.5 5.3,22.4 C4.8,22.6 4.3,22.5 3.9,22.1 L3.9,22.1 C3.7,22.2 3.5,22.2 3.4,22.2 L3.2,22.2 L3.1,21.6 L3.3,21.6 C3.5,21.6 3.5,21.6 3.6,21.5 C3.7,21.4 3.8,21.4 3.9,21.4 C4.1,21.4 4.2,21.6 4.2,21.6 C4.5,21.9 4.7,21.9 4.9,21.8 C5.1,21.7 5.4,21.6 5.6,22 L5.7,22 L5.7,22 C5.8,22.1 5.9,22.1 6.1,22 C6.3,22 6.5,21.9 6.7,22 C7.1,22.3 7.3,22.3 7.5,22.2 C7.9,22 8.1,22.2 8.3,22.3 C8.4,22.4 8.6,22.4 8.9,22.4 C9,22.4 9.2,22.3 9.3,22.3 C9.5,22.3 9.7,22.4 9.8,22.5 C10,22.6 10.1,22.7 10.3,22.6 C10.4,22.5 10.8,22.3 11.2,22.7 L11.2,22.7 C11.2,22.7 11.3,22.7 11.3,22.8 L11.6,22.8 C11.8,22.7 12.1,22.6 12.4,22.8 C12.7,23 12.9,23 13.2,22.8 C13.5,22.6 13.7,22.8 13.8,22.9 C13.9,23 13.9,23 14,23.1 C14.1,23.2 14.2,23.1 14.4,23 C14.6,22.9 14.8,22.8 15.1,22.9 C15.5,23.1 15.7,23.1 15.9,22.9 C16,22.8 16.3,22.6 16.6,22.9 L16.7,22.9 C16.7,22.9 16.8,22.9 16.8,23 C16.9,23.1 16.9,23.1 17.1,22.9 C17.3,22.8 17.6,22.7 17.9,22.8 C18.3,23 18.5,23 18.7,22.8 C19,22.5 19.2,22.7 19.3,22.8 L19.4,22.8 C19.6,22.9 19.7,22.8 19.9,22.7 C20.1,22.6 20.3,22.5 20.5,22.6 L20.7,22.6 C21.1,22.7 21.2,22.7 21.4,22.6 C21.7,22.3 21.9,22.4 22.1,22.6 C22.3,22.8 22.6,22.7 22.7,22.5 C23,22.2 23.3,22.3 23.5,22.4 C23.8,22.5 24,22.5 24.2,22.3 C24.5,22 24.8,22.1 24.9,22.2 C25.1,22.3 25.2,22.2 25.4,22.1 C25.6,22 25.7,21.9 26,21.9 L26.3,21.9 C26.6,21.9 26.8,21.9 26.9,21.8 C27.1,21.6 27.4,21.5 27.7,21.7 C27.8,21.7 28,21.8 28.1,21.7 C28.3,21.5 28.7,21.2 29.3,21.5 L29.4,21.5 L29.6,21.5 L29.6,22.1 L29.5,22.1 C29.4,22.1 29.2,22.1 29.1,22 C28.9,21.9 28.8,21.9 28.6,22.1 C28.3,22.4 27.9,22.4 27.5,22.2 L27.5,22.2 L27.5,22.2 C27.1,22.6 26.7,22.6 26.4,22.5 L26.1,22.5 C26,22.5 25.9,22.6 25.8,22.6 C25.5,22.7 25.2,22.9 24.8,22.7 C24.8,22.7 24.8,22.7 24.7,22.7 L24.7,22.7 C24.3,23.1 23.8,23.2 23.3,22.9 L23.3,22.9 L23.3,22.9 C22.9,23.3 22.4,23.4 21.9,23.1 L21.9,23.1 L21.9,23.1 C21.5,23.5 21,23.4 20.6,23.3 L20.4,23.3 L20.2,23.4 C20,23.5 19.6,23.7 19.2,23.5 C19.1,23.5 19.1,23.5 19.1,23.4 C18.7,23.8 18.2,23.8 17.7,23.5 C17.7,23.5 17.6,23.5 17.4,23.6 C17.4,23.7 17.2,23.8 17,23.8 Z" id="Shape" fill="#E86DC8" opacity="0.68"></path>
                    <path d="M31.8,20.3 C31,20.4 28.2,19.3 27.4,19.2 C25.6,19 24.1,18.4 22.3,18.5 C20.1,18.6 18.2,19.6 16.6,21 C16.4,21.2 16.2,21.2 16,21 C14.6,19.6 12.9,18.9 11,18.6 C9.7,18.4 8.5,18.9 7.2,18.8 C5.7,18.7 2.2,20.9 1,20.1 C0.8,20.2 3.3,16.5 2.2,14.9 C1.7,14.3 3.9,14.4 4,14.3 C4.1,14.2 5.2,14.4 5.4,14.5 C6.4,14.8 6.5,14.5 7.4,14.4 C8.5,14.2 10.2,15.2 11.1,15.7 C12.6,16.7 13.5,16.1 15.1,15.5 C16.3,15 18.4,15.5 19.5,15.9 C21.1,16.6 21.6,16 23.1,15.1 C24.3,14.4 25.5,14.1 26.8,14.4 C27.5,14.6 30,14.1 30.7,13.9 C30.9,13.8 29.9,16.3 30,16.5 C30.5,17.1 31.6,19.6 31.8,20.3 Z" id="Shape" fill="#F9E33E"></path>
                    <path d="M2.5,16.3 C4.4,17 5.8,16 7.1,16.1 C8.4,16.3 10,17.6 12.1,17.6 C14.1,17.7 14.4,16.8 16.3,16.8 C18.2,16.8 18.7,17.9 20.9,17.6 C23.1,17.3 23.6,15.9 25.4,15.8 C27.2,15.7 29.3,17.3 30.4,17 L30.2,16 L28.3,14 L18,15.3 L3.8,14.5 L2.5,16.3 Z" id="Shape" fill="#CCB637"></path>
                    <path d="M28.6,15.8 C28.2,15.8 27.7,15.4 27.4,15.3 C25.7,15 24.1,15.3 22.7,16.2 C21.4,17 20.1,17.1 18.7,16.5 C17.2,15.8 15.7,15.9 14.2,16.5 C12.8,17.1 11.5,16.9 10.2,16.1 C8.7,15.1 7.1,15 5.4,15.4 C4.2,15.6 2.7,15.9 1.8,15.1 C1.2,14.6 2,12.4 2.7,12.1 C2.8,12 3.3,12.4 3.4,12.4 C5.1,13.3 6.2,13.5 8.1,13.9 C12,14.7 15.9,14.9 19.9,14.4 C23.1,14.2 25.6,13.8 28.6,12.8 C28.9,12.7 29.9,12.1 30.2,12 C30.6,11.7 30.9,13 31.2,13.3 C31.5,13.6 31.3,14.8 31,15 C30.4,15.6 30.2,15.7 29.5,15.8 C29.3,16.1 28.8,15.8 28.6,15.8 Z" id="Shape" fill="url(#linearGradient-2)"></path>
                    <polygon id="Shape" fill="#000000" points="9.4 4 10.7 4.5 12.3 4 12 3 11.3 2.1 10.2 2.1 8.2 3"></polygon>
                    <path d="M2.1,12.7 C4.1,13.7 9.1,15.5 16.4,15.3 C23.7,15.1 29.4,14 30.8,12.1 L30.6,11.7 L12,12.1 L3,11.3 L2.1,12.7 Z" id="Shape" fill="#5DB56D"></path>
                    <path d="M10.7,2 C12.1,1.6 13.2,1.4 14.6,1.3 L16.4,1.3 C16.8,1.3 18.3,1.2 19.3,1.3 C20.3,1.4 21.3,1.9 22.2,2.2 C24.9,3 27.2,4.3 29,6.5 C29.7,7.4 30.3,8.4 30.5,9.6 C30.8,10.9 30.4,12.1 29.2,12.6 C27.7,13.2 26,13.5 24.4,13.8 C20.6,14.5 16.9,15.1 13,14.9 C9.9,14.7 6.7,13.8 3.7,12.9 C2.8,12.6 2.1,11.8 1.9,10.8 C1.8,10.2 1.9,9.7 2.1,9.2 C3.1,6.6 4.9,4.9 7.2,3.6 C8.6,2.8 10.8,2.1 10.7,2 Z" id="Shape" fill="url(#linearGradient-3)"></path>
                    <path d="M4.9,13.1 C10.1,15.2 31.3,12 26,3.8 L27.2,4.7 L28.8,6.1 L30.1,8.1 L30.6,10.1 L30.4,11.7 L29,12.7 L25.4,13.8 L21.5,14.3 L17.1,14.6 L12.2,14.5 L8.5,14 L4.9,13.1 Z" id="Shape" fill="#FFFFFF" opacity="0.3"></path>
                    <path d="M16.5,1.5 C19,1.5 21.2,1.9 23.2,2.6 C26.2,3.7 28.3,5.5 29.6,7.9 C30.3,9.1 30.5,10.1 30.3,11 C30.2,11.7 30.4,12.8 30.8,13.4 C31.2,14.1 31,15 30.3,15.6 C30.2,15.7 29.9,15.9 29.9,16.3 C29.9,16.6 30,16.9 30.1,17 C30.8,17.9 31.3,18.9 31.5,19.9 L31.5,20.2 C31.5,20.3 31.4,20.3 31.3,20.3 L31.2,20.3 C31,20.2 30.8,20.2 30.5,20.1 C30.4,20.1 30.3,20 30.2,20 L29.1,19.7 L29.5,20.8 C29.6,21.1 29.6,21.4 29.5,21.9 L29.5,22 C29.4,22.3 29.4,22.7 29.7,23.1 C30.6,24.3 30.7,26.1 29.9,27.4 C29.5,27.9 29.1,28.3 28.5,28.5 C24.6,29.6 20.6,30.2 16.5,30.2 C15.3,30.2 14.1,30.2 12.9,30.1 C10.2,29.9 7.5,29.4 4.8,28.7 C3.3,28.3 2.5,27.3 2.4,25.7 C2.3,24.7 2.6,23.9 3.2,23.1 C3.4,22.8 3.5,22.5 3.4,22.1 C3.3,21.6 3.2,21.2 3.3,20.8 L3.5,19.8 L2.4,20 C2.3,20 2.2,20.1 2.1,20.1 C1.9,20.2 1.7,20.2 1.5,20.3 L1.3,20.3 L1.2,20.3 C1.1,20.2 1.1,20.2 1.2,20 C1.6,19 2,17.9 2.7,16.9 C2.9,16.6 3.1,16.1 2.5,15.6 C2.1,15.3 1.7,14.8 1.7,14.2 C1.7,13.6 2.1,13.1 2.5,12.7 L2.5,12.7 C2.9,12.3 2.8,12 2.7,11.8 C2.2,10.9 2.3,9.8 2.8,8.5 C3.8,6.3 5.4,4.6 7.9,3.3 C9.8,2.3 12.1,1.7 14.7,1.5 C15.3,1.5 15.9,1.5 16.5,1.5 L16.5,1.5 Z M16.5,0.9 C15.8,0.9 15.2,0.9 14.5,1 C12.1,1.2 9.7,1.7 7.5,2.9 C5.1,4.2 3.3,5.9 2.2,8.4 C1.7,9.6 1.5,10.9 2.1,12.2 C2.2,12.4 2.1,12.4 2,12.5 C0.7,13.7 0.7,15.1 2.1,16.2 C2.3,16.4 2.3,16.5 2.2,16.7 C1.5,17.7 1,18.8 0.6,19.9 C0.5,20.2 0.5,20.5 0.7,20.8 C0.9,21 1,21 1.3,21 L1.6,21 C1.9,20.9 2.2,20.8 2.5,20.7 C2.4,21.3 2.5,21.8 2.6,22.3 C2.6,22.5 2.6,22.6 2.5,22.8 C1.8,23.7 1.6,24.7 1.6,25.7 C1.7,27.5 2.7,28.8 4.4,29.2 C7.1,29.9 9.8,30.4 12.6,30.6 C13.8,30.7 15,30.7 16.2,30.7 C20.3,30.7 24.4,30.1 28.3,29 C29,28.8 29.6,28.3 30,27.7 C30.9,26.2 30.9,24.1 29.8,22.7 C30,22.4 29.9,22.3 30,22 C30.1,21.5 30.3,21 30,20.5 C30.4,20.6 30.7,20.7 31,20.8 L31.3,20.8 C31.9,20.8 32.2,20.3 32.1,19.7 C31.8,18.6 31.3,17.5 30.6,16.6 C30.4,16.3 30.4,16.2 30.7,16 C31.7,15.2 32,14.1 31.4,13.1 C31.1,12.6 30.9,11.6 31,11.1 C31.2,9.8 30.8,8.7 30.2,7.6 C28.7,4.8 26.3,3.1 23.5,2 C21.2,1.2 18.9,0.9 16.5,0.9 L16.5,0.9 Z" id="Shape" fill="#000000"></path>
                    <path d="M20.3,6.8 C20.3,7.2 20,7.4 19.6,7.3 C19.1,7.1 18.7,7 18.2,6.8 C18,6.7 17.8,6.4 17.9,6.1 C18,5.8 18.3,5.7 18.5,5.8 C19,6 19.5,6.2 19.9,6.4 C20.2,6.5 20.3,6.6 20.3,6.8 Z" id="Shape" fill="#000000"></path>
                    <path d="M16.1,15.1 C10.8,15.1 3.1,13.9 2,11.9 L2.5,11.6 C3.3,13.1 10.2,14.5 16.3,14.5 C21.7,14.5 30.2,13 30.3,11.2 L30.9,11.3 C30.6,14 20.5,15.1 16.3,15.2 C16.3,15.1 16.2,15.1 16.1,15.1 Z" id="Shape" fill="#000000"></path>
                    <path d="M20.4,17.3 C19.8,17.3 19.2,17.2 18.6,16.9 C17.3,16.3 15.8,16.3 14.3,16.9 C12.8,17.5 11.4,17.4 10,16.5 C8.6,15.6 7.2,15.4 5.4,15.8 C5.1,15.9 4.8,15.9 4.6,16 C3.8,16.3 3,16.5 2.2,15.8 C0.9,14.7 1,13.8 1.3,13.3 L1.8,13.6 C1.5,14.1 1.7,14.7 2.5,15.4 C3.1,15.9 3.6,15.7 4.4,15.5 C4.7,15.4 5,15.3 5.3,15.3 C7.3,14.9 8.9,15.1 10.3,16.1 C11.5,16.9 12.7,17 14,16.4 C15.7,15.7 17.3,15.7 18.7,16.4 C20,17 21.2,16.9 22.4,16.1 C23.9,15.1 25.6,14.8 27.3,15.1 C27.6,15.2 27.9,15.3 28.2,15.4 C29.3,15.9 30.1,16.1 30.7,15 C30.9,14.6 31,13.8 30.9,13.6 L31.3,13.2 C31.7,13.7 31.4,14.9 31.2,15.2 C30.3,16.9 28.9,16.3 28,15.9 C27.7,15.8 27.5,15.7 27.2,15.6 C25.6,15.3 24.1,15.6 22.7,16.5 C22,17 21.2,17.3 20.4,17.3 Z" id="Shape" fill="#000000"></path>
                    <path d="M16.3,21.5 C16.1,21.5 16,21.4 15.8,21.2 C14.5,19.9 12.9,19.1 11,18.9 C8.7,18.5 5.6,19.5 3.8,20.2 C3.3,20.4 2.9,20.5 2.7,20.6 L2.5,20 C2.8,19.9 3.2,19.8 3.6,19.7 C5.5,19.1 8.7,18 11.1,18.4 C13.1,18.7 14.9,19.5 16.2,20.9 L16.3,21 C16.3,21 16.3,21 16.4,20.9 C18.3,19.3 20.2,18.4 22.3,18.3 C26.2,18.1 31.2,20.3 31.2,20.3 L31,20.8 C30,20.4 25.7,18.7 22.4,18.9 C20.4,19 18.7,19.8 16.9,21.3 C16.7,21.4 16.5,21.5 16.3,21.5 Z" id="Shape" fill="#000000"></path>
                    <path d="M17,23.5 C16.9,23.5 16.7,23.5 16.6,23.3 C16.6,23.3 16.6,23.3 16.5,23.3 L16.4,23.2 L16.4,23.2 C15.8,23.6 15.4,23.4 15,23.2 L15,23.2 C15,23.2 14.9,23.3 14.8,23.3 C14.6,23.4 14.2,23.6 13.9,23.3 C13.8,23.2 13.7,23.2 13.7,23.1 C13.3,23.4 12.8,23.3 12.3,23 C12.3,23 12.2,23 12,23.1 C11.8,23.2 11.5,23.3 11.1,23.1 L11.1,23.1 C11,23.1 11,23 10.9,22.9 L10.9,22.9 C10.9,22.9 10.9,22.9 10.8,23 C10.4,23.3 10,23 9.7,22.9 C9.6,22.9 9.5,22.8 9.5,22.8 L9.5,22.8 C9.4,22.8 9.3,22.8 9.2,22.9 C8.9,23 8.5,23.1 8.1,22.7 L8,22.6 L8,22.6 C7.4,22.9 7,22.6 6.6,22.4 L6.4,22.4 C6.2,22.4 5.8,22.5 5.5,22.2 C5.4,22.1 5.4,22.1 5.3,22 C4.8,22.2 4.3,22.1 3.9,21.7 L3.9,21.7 C3.7,21.8 3.5,21.8 3.4,21.8 L3.2,21.8 L3.1,21.2 L3.3,21.2 C3.5,21.2 3.5,21.2 3.6,21.1 C3.7,21 3.8,21 3.9,21 C4.1,21 4.2,21.2 4.2,21.2 C4.5,21.5 4.7,21.5 4.9,21.4 C5.1,21.3 5.4,21.2 5.6,21.6 L5.7,21.6 L5.7,21.6 C5.8,21.7 5.9,21.7 6.1,21.6 C6.3,21.6 6.5,21.5 6.7,21.6 C7.1,21.9 7.3,21.9 7.5,21.8 C7.9,21.6 8.1,21.8 8.3,21.9 C8.4,22 8.6,22 8.9,22 C9,22 9.2,21.9 9.3,21.9 C9.5,21.9 9.7,22 9.9,22.1 C10.1,22.2 10.2,22.3 10.4,22.2 C10.5,22.1 10.9,21.9 11.3,22.3 L11.3,22.3 C11.3,22.3 11.4,22.3 11.4,22.4 L11.7,22.4 C11.9,22.3 12.2,22.2 12.5,22.4 C12.8,22.6 13,22.6 13.3,22.4 C13.6,22.2 13.8,22.4 13.9,22.5 L14.1,22.7 C14.2,22.8 14.3,22.7 14.5,22.6 C14.7,22.5 15,22.4 15.2,22.5 C15.6,22.7 15.8,22.7 16,22.5 C16.1,22.4 16.4,22.2 16.7,22.5 L16.8,22.5 C16.8,22.5 16.9,22.5 16.9,22.6 C17,22.7 17,22.7 17.2,22.5 C17.4,22.4 17.7,22.3 18,22.4 C18.4,22.6 18.6,22.6 18.8,22.4 C19.1,22.1 19.3,22.3 19.4,22.4 L19.5,22.4 C19.7,22.5 19.8,22.4 20,22.3 C20.2,22.2 20.4,22.1 20.6,22.2 L20.8,22.2 C21.2,22.3 21.3,22.3 21.5,22.2 C21.8,21.9 22,22 22.2,22.2 C22.4,22.4 22.7,22.3 22.8,22.1 C23.1,21.8 23.4,21.9 23.6,22 C23.9,22.1 24.1,22.1 24.3,21.9 C24.6,21.6 24.9,21.7 25,21.8 C25.2,21.9 25.3,21.8 25.5,21.7 C25.7,21.6 25.9,21.5 26.1,21.5 L26.4,21.5 C26.7,21.5 26.9,21.5 27,21.4 C27.2,21.2 27.5,21.1 27.8,21.3 C27.9,21.3 28.1,21.4 28.2,21.3 C28.4,21.1 28.8,20.8 29.4,21.1 L29.5,21.1 L29.7,21.1 L29.7,21.7 L29.6,21.7 C29.5,21.7 29.3,21.7 29.2,21.6 C29,21.5 28.9,21.5 28.7,21.7 C28.4,22 28,22 27.6,21.8 L27.6,21.8 L27.6,21.8 C27.2,22.2 26.8,22.2 26.5,22.1 L26.2,22.1 L26.2,22.1 C26.1,22.1 26,22.2 25.9,22.2 C25.6,22.3 25.3,22.5 24.9,22.3 C24.9,22.3 24.9,22.3 24.8,22.3 L24.8,22.3 C24.4,22.7 23.9,22.8 23.4,22.5 L23.4,22.5 L23.4,22.5 C23,23.2 22.5,23.3 22,23 L22,23 L22,23 C21.6,23.4 21.1,23.3 20.7,23.2 L20.5,23.2 L20.3,23.3 C20.1,23.4 19.7,23.6 19.3,23.4 C19.2,23.4 19.2,23.4 19.2,23.3 C18.8,23.7 18.3,23.7 17.8,23.4 C17.8,23.4 17.7,23.4 17.5,23.5 C17.4,23.5 17.2,23.5 17,23.5 Z" id="Shape" fill="#000000"></path>
                    <path d="M16.6,25.9 C12.3,25.9 7.5,25.2 2.8,23.3 L3,22.8 C14.9,27.7 28,24.3 29.8,22.6 L30.2,23 C28.9,24.2 23.4,25.9 16.6,25.9 Z" id="Shape" fill="#000000"></path>
                    <path d="M24.1,6.5 C24,6.8 23.5,6.9 23.3,6.7 C22.9,6.4 22.6,6 22.3,5.6 C22.1,5.4 22.1,5.1 22.3,4.9 C22.5,4.7 22.8,4.7 23,4.9 C23.4,5.3 23.7,5.6 24.1,6 C24.2,6.1 24.2,6.3 24.1,6.5 Z" id="Shape" fill="#000000"></path>
                    <path d="M13.8,5.9 C13.5,5.7 13.4,5.3 13.7,5.1 C14.1,4.8 14.5,4.5 14.9,4.2 C15.1,4 15.4,4.1 15.6,4.3 C15.8,4.5 15.8,4.8 15.5,5 C15.1,5.3 14.7,5.6 14.3,5.9 C14.1,6 14,6 13.8,5.9 Z" id="Shape" fill="#000000"></path>
                    <path d="M10.3,6.3 C10.5,6.6 10.4,7 10.1,7.1 C9.6,7.3 9.2,7.4 8.7,7.5 C8.4,7.6 8.2,7.4 8.1,7.1 C8,6.8 8.1,6.6 8.4,6.5 C8.9,6.3 9.4,6.2 9.9,6.1 C10,6.1 10.1,6.2 10.3,6.3 Z" id="Shape" fill="#000000"></path>
                    <path d="M11.3,2.7 C11,2.5 10.8,2.2 10.5,2 C10.2,2.1 9.7,2.3 9.4,2.4 C9.4,2.4 9.4,2.5 9.5,2.5 C9.9,2.8 10.2,3.2 10.6,3.4 C10.9,3.6 11.3,3.5 11.4,3.1 C11.5,3.1 11.5,2.9 11.3,2.7 Z" id="Shape" fill="#000000"></path>
                    <path d="M17.7,1.3 C17.5,1.6 17.4,2 17.2,2.4 C17.1,2.7 17.3,3.1 17.7,3.1 C17.9,3.1 18.1,3 18.2,2.9 C18.4,2.5 18.7,2 18.9,1.5 C18.4,1.4 18,1.4 17.7,1.3 Z" id="Shape" fill="#000000"></path>
                </g>
            </g>
        </g>
    </g>
</svg>