<?xml version="1.0" encoding="UTF-8"?>
<svg width="15px" height="14px" viewBox="0 0 15 14" version="1.1" xmlns="http://www.w3.org/2000/svg" xmlns:xlink="http://www.w3.org/1999/xlink">
    <!-- Generator: Sketch 43.2 (39069) - http://www.bohemiancoding.com/sketch -->
    <title>facebook</title>
    <desc>Created with Sketch.</desc>
    <defs></defs>
    <g id="Page-1" stroke="none" stroke-width="1" fill="none" fill-rule="evenodd">
        <g id="facebook" fill-rule="nonzero" fill="#FFFFFF">
            <g id="Shape">
                <path d="M7.5,0.1 C3.7,0.1 0.6,3.2 0.6,7 C0.6,10.8 3.7,13.9 7.5,13.9 C11.3,13.9 14.4,10.8 14.4,7 C14.4,3.2 11.3,0.1 7.5,0.1 Z M9.3,7 L8.1,7 L8.1,11.1 L6.4,11.1 L6.4,7 L5.6,7 L5.6,5.6 L6.4,5.6 L6.4,4.6 C6.4,3.9 6.7,2.9 8.1,2.9 L9.4,2.9 L9.4,4.3 L8.5,4.3 C8.3,4.3 8.1,4.4 8.1,4.7 L8.1,5.6 L9.4,5.6 L9.3,7 Z"></path>
            </g>
        </g>
    </g>
</svg>