<svg id="Capa_1" data-name="Capa 1" xmlns="http://www.w3.org/2000/svg" viewBox="0 0 25 25"><defs><style>.cls-1{fill:#fff;}</style></defs><title>icono3</title><path class="cls-1" d="M12.51,6.35h.93c.08,0,.16,0,.15.12s-.08.11-.15.11H11.57c-.08,0-.15,0-.15-.11s.08-.11.16-.11h.93Z"/><path class="cls-1" d="M14.42,6.44c0,.09,0,.14-.14.14a.13.13,0,1,1,0-.27A.13.13,0,0,1,14.42,6.44Z"/><path class="cls-1" d="M13.91,6.35a.11.11,0,0,1,.1.12.1.1,0,0,1-.11.09.1.1,0,0,1-.1-.1A.11.11,0,0,1,13.91,6.35Z"/><path class="cls-1" d="M13,18.3h-.83a.23.23,0,0,0-.25.24.24.24,0,0,0,.25.24H13a.24.24,0,1,0,0-.48Z"/><path class="cls-1" d="M13.09,5.7h2.59a.82.82,0,0,1,.88.89v5.63h0v1.92c0,1.39,0,2.83,0,4.24a.88.88,0,0,1-.91.91H9.35a.82.82,0,0,1-.9-.91V6.62a.82.82,0,0,1,.9-.92h3.74m0-.26H9.35A1.08,1.08,0,0,0,8.18,6.62q0,5.88,0,11.76a1.08,1.08,0,0,0,1.16,1.17h6.32a1.14,1.14,0,0,0,1.16-1.17c0-2,0-3.93,0-5.9h0q0-2.95,0-5.9a1.08,1.08,0,0,0-1.15-1.16Z"/><path class="cls-1" d="M15.66,7.5h0c.16,0,.24,0,.24.25V12.3h0v5c0,.22,0,.26-.26.26H9.36c-.21,0-.26,0-.26-.25V7.75c0-.19.05-.25.24-.25h6.32m0-.26H9.34a.45.45,0,0,0-.51.51q0,4.8,0,9.59a.45.45,0,0,0,.52.51h6.29c.36,0,.52-.17.52-.53q0-2.39,0-4.77h0q0-2.4,0-4.81a.46.46,0,0,0-.5-.52Z"/><path class="cls-1" d="M12.5,25A12.5,12.5,0,1,1,25,12.5,12.51,12.51,0,0,1,12.5,25ZM12.5.26A12.24,12.24,0,1,0,24.74,12.5,12.25,12.25,0,0,0,12.5.26Z"/></svg>