<svg xmlns="http://www.w3.org/2000/svg" viewBox="0 0 220 121" enable-background="new 0 0 220 121"><style type="text/css">.st0{fill:#54284E;} .st1{fill:url(#SVGID_1_);} .st2{fill:url(#SVGID_2_);} .st3{fill:#6199AF;}</style><path class="st0" d="M77.2 30.6c-2.9 1.4-23.2 13.2-23.2 13.2s5.2 3.1 6.1 3.5c.7.4 1.6.6 3.4-.4 1.8-1.1 12.6-6.9 13.7-7.5 1.1-.6 3.8-1.3 6.2 0 3.2 1.7 13.6 7.6 13.6 7.6s2 1.2 4.2.1l5.4-3.2s-21.9-12.7-23.2-13.3c-1-.4-2-.6-3.1-.6-1.1-.1-2.1.2-3.1.6M53.2 72.2c.2 2.1 1.3 4.1 3.1 5.4 2.6 1.9 23.1 13.5 23.1 13.5v-7c0-.8-.2-1.7-2.1-2.7-1.8-1.1-12.3-7.3-13.5-8-1.1-.7-2.9-2.8-3-5.5-.1-3.6-.1-15.6-.1-15.6 0-1.7-.5-2.5-1.6-3.2l-6-3.6s0 25.2.1 26.7"/><path class="st0" d="M101.5 49c-1 .6-1.6 1.5-1.6 3.2 0 0 .1 11.9-.1 15.6-.1 2.8-1.9 4.9-3 5.5-1.1.7-11.6 6.9-13.5 8-1.9 1.1-2.1 1.9-2.1 2.7v7s20.4-11.6 23.1-13.5c1.8-1.2 2.9-3.3 3.1-5.4.2-1.5.1-26.7.1-26.7l-6 3.6z"/><linearGradient id="SVGID_1_" gradientUnits="userSpaceOnUse" x1="62.669" y1="65.805" x2="79.404" y2="65.805"><stop offset="0" stop-color="#6398AE"/><stop offset=".183" stop-color="#5C91A8"/><stop offset=".45" stop-color="#497E99"/><stop offset=".766" stop-color="#295E80"/><stop offset="1" stop-color="#0D426A"/></linearGradient><path class="st1" d="M62.7 51.3s12 6.7 13.8 7.8c1.8 1.1 2.9 1.5 2.9 5v16.1s-5.3-3.1-5.8-3.4c-.7-.4-1.3-1.3-1.4-2.7 0-.8.1-8.6-.2-9.7-.4-1.1-2.1-2.4-2.6-2.7-2.6-1.6-5.1-3-5.8-3.4-.6-.4-.9-.7-.9-1.6v-5.4z"/><linearGradient id="SVGID_2_" gradientUnits="userSpaceOnUse" x1="81.208" y1="65.805" x2="97.943" y2="65.805"><stop offset="0" stop-color="#0D426A"/><stop offset=".234" stop-color="#295E80"/><stop offset=".55" stop-color="#497E99"/><stop offset=".817" stop-color="#5C91A8"/><stop offset="1" stop-color="#6398AE"/></linearGradient><path class="st2" d="M97.9 51.3s-12 6.7-13.8 7.8c-1.8 1.1-2.9 1.5-2.9 5v16.1s5.3-3.1 5.8-3.4c.7-.4 1.3-1.3 1.4-2.7 0-.8-.1-8.6.2-9.7.4-1.1 2.1-2.4 2.6-2.7 2.6-1.6 5.1-3 5.8-3.4.6-.4.9-.7.9-1.6v-5.4z"/><path class="st3" d="M119.3 87.1c-.7 0-1.3-.1-1.9-.3-.5-.2-.9-.6-1.2-1-.3-.4-.5-.9-.6-1.5-.1-.6-.2-1.2-.2-2v-4.7c0-.6 0-1.2.1-1.7s.2-.9.4-1.4c.2-.4.5-.8.8-1 .3-.3.7-.5 1.2-.6.5-.1 1.1-.2 1.7-.2.6 0 1.2.1 1.6.2.5.1.9.3 1.2.5.3.2.6.5.8.9.2.3.3.7.4 1.1.1.4.1.9.1 1.4v.9h-3.1v-1.6c0-.1 0-.3-.1-.4 0-.2-.1-.3-.2-.4-.1-.1-.2-.2-.3-.2-.1-.1-.3-.1-.5-.1s-.4 0-.5.1l-.3.3c-.1.1-.1.2-.2.4l-.1.5v6.9c0 .6.1 1 .3 1.3.2.3.5.5.9.5.8 0 1.2-.6 1.2-1.9v-1.6h-1.3v-1.9h4.1v7.5h-2l-.2-1.4c-.3 1-1 1.4-2.1 1.4zM125.1 87.1v-14.4h3.1v12.3h3.3v2.1h-6.4zM136.3 87.1c-.8 0-1.5-.1-2-.3-.6-.2-1-.5-1.3-.9-.3-.4-.6-.9-.7-1.4-.1-.6-.2-1.2-.2-2v-5.2c0-.8.1-1.4.2-2 .1-.6.4-1 .7-1.4.3-.4.8-.7 1.3-.9.6-.2 1.2-.3 2-.3 1.5 0 2.6.4 3.3 1.2.7.8 1 1.9 1 3.5v5.2c0 1.5-.3 2.7-1 3.5-.6.6-1.7 1-3.3 1zm-.5-2.3c.1.1.3.1.5.1s.4 0 .5-.1l.3-.2c.1-.1.1-.2.2-.4 0-.2.1-.3.1-.4v-7.7c0-.1 0-.3-.1-.4 0-.2-.1-.3-.2-.4-.1-.1-.2-.2-.3-.2-.1-.1-.3-.1-.5-.1s-.4 0-.5.1l-.3.2c-.1.1-.1.2-.2.4 0 .2-.1.3-.1.4v7.7c0 .1 0 .3.1.4 0 .2.1.3.2.4.1.1.2.2.3.2zM141.8 87.1v-14.4h3.7c.5 0 1 0 1.4.1l1.2.3c.4.2.7.4 1 .6s.5.6.6 1.1c.1.4.2.9.2 1.5v.1c0 1.7-.7 2.7-2.1 2.9.8.1 1.4.5 1.9 1 .4.6.6 1.4.7 2.4v.1c0 1.4-.4 2.5-1.1 3.1-.7.7-1.8 1-3.2 1h-4.3zm3.2-8.6h.6c.7 0 1.1-.2 1.4-.5.2-.3.4-.8.4-1.5 0-1.1-.6-1.7-1.8-1.7h-.6v3.7zm0 6.4h.7c.7 0 1.2-.2 1.4-.5.3-.3.4-.9.4-1.6 0-.8-.1-1.4-.4-1.7-.3-.3-.8-.5-1.5-.5h-.6v4.3zM150.7 87.1l2.7-14.4h3.6l2.7 14.4h-2.9l-.5-3.1h-2.1l-.5 3.1h-3zm3.7-4.9h1.5l-.8-5.6-.7 5.6zM160.5 87.1v-14.4h3.1v12.3h3.3v2.1h-6.4z"/><path class="st0" d="M115.7 69.6v-10.8l-5-15.6h5.5l2.5 8.3 2.3-8.3h5.3l-5 15.6v10.8h-5.6zM135.3 69.5c-1.2 0-2.2-.1-3.1-.4-.9-.2-1.6-.6-2.2-1-.6-.4-1.1-1-1.4-1.7s-.6-1.5-.8-2.4c-.1-.9-.2-1.9-.2-3v-17.8h5.8v19.6c0 .3.1.6.2.9.1.3.2.6.3.8s.3.4.6.5c.3.1.6.2.9.2.4 0 .7-.1.9-.2.3-.1.5-.3.6-.5.1-.2.2-.5.3-.8l.2-.9v-19.6h5.8v17.8c0 1.4-.1 2.7-.4 3.7-.2 1-.7 1.9-1.2 2.6-.6.8-1.4 1.3-2.4 1.7-1.1.3-2.4.5-3.9.5zM144.2 69.6l5.1-14.2-4.9-12.1h5.5l2.9 7.1 2.3-7.1h4.9l-4.6 13.7 5.1 12.7h-5.5l-3.2-7.9-2.8 7.9h-4.8zM161.3 69.6v-26.4h5.6v26.3h-5.6z"/><path class="st3" d="M127.1 33.9h.4v6.2h-.4zM129.8 35.6c-.4 0-.7.2-1.1.5v-.5h-.4v4.5h.4v-3.7l.4-.4c.2-.1.3-.1.4-.1.2 0 .3.1.3.2.1.1.1.3.1.5v3.5h.4v-3.6c0-.3-.1-.6-.2-.7.1-.1-.1-.2-.3-.2zM133 38.3c-.1-.1-.2-.2-.2-.3l-.3-.3-.5-.5-.4-.4c-.1-.1-.1-.3-.1-.4 0-.2.1-.3.2-.4.1-.1.3-.2.5-.2.4 0 .7.3.7.9l.3-.1c0-.4-.1-.6-.3-.8-.2-.2-.4-.3-.7-.3-.3 0-.6.1-.7.3-.2.2-.3.4-.3.7 0 .2.1.4.2.6l.5.5.5.4c.4.4.7.7.7 1 0 .2-.1.4-.2.5-.1.1-.3.2-.5.2-.5 0-.8-.3-.9-1l-.3.1c0 .4.2.7.4.9s.5.3.8.3c.3 0 .6-.1.8-.3.2-.2.3-.4.3-.7 0-.2 0-.3-.1-.4-.3 0-.3-.2-.4-.3zM135.8 36.1c-.1-.2-.2-.3-.3-.4-.1-.1-.3-.1-.5-.1-.3 0-.6.1-.8.4v-.4h-.4v5.8h.4v-1.8c.2.3.5.4.8.4.4 0 .7-.2.8-.5.2-.3.2-.8.2-1.4v-1.6c-.1-.1-.1-.2-.2-.4zm-.2 2.2c0 .6 0 1-.1 1.2-.1.2-.3.4-.5.4-.3 0-.5-.1-.8-.4v-3.1c.2-.3.5-.4.8-.4.3 0 .5.1.5.3.1.2.1.6.1 1.2v.8zM136.7 34.4h.4v.7h-.4zM139.4 35.6c-.2 0-.4.1-.6.2-.2.1-.3.3-.5.5v-.6h-.4v4.5h.4v-3.6c.2-.4.5-.6 1-.6h.2l-.1-.4zM142 37.3c0-.6-.1-1.1-.2-1.4-.2-.3-.4-.4-.9-.4h-.4c-.1 0-.2.1-.3.2-.1.1-.2.2-.2.3-.1.1-.1.3-.1.5s-.1.4-.1.7v1.2c0 .3 0 .5.1.7 0 .2.1.4.1.5l.2.3.3.2h.4c.4 0 .7-.1.8-.3.2-.2.3-.5.3-.9v-.3h-.4v.7l-.1.3c0 .1-.1.1-.2.1l-.2.1h-.2c-.3 0-.4-.1-.6-.3-.1-.2-.2-.6-.2-1.1v-.7h1.8l.1-.4zm-.4.2h-1.4v-.3c0-.3 0-.6.1-.8.1-.2.1-.3.2-.4.1-.1.2-.1.4-.1.1 0 .2 0 .3.1.1 0 .2.1.2.2l.1.3c0 .1 0 .2.1.3v.7zM148.6 38.3c-.1-.1-.2-.2-.2-.3l-.3-.3-.5-.5-.4-.4c-.1-.1-.1-.3-.1-.4 0-.2.1-.3.2-.4.1-.1.3-.2.5-.2.4 0 .7.3.7.9l.3-.1c0-.4-.1-.6-.3-.8-.2-.2-.4-.3-.7-.3-.3 0-.6.1-.7.3-.2.2-.3.4-.3.7 0 .2.1.4.2.6.1.2.3.3.5.5l.5.4c.4.4.7.7.7 1 0 .2-.1.4-.2.5-.1.1-.3.2-.5.2-.5 0-.8-.3-.9-1l-.3.1c0 .4.2.7.4.9s.5.3.8.3c.3 0 .6-.1.8-.3.2-.2.3-.4.3-.7 0-.2 0-.3-.1-.4-.3 0-.4-.2-.4-.3zM151.2 36c-.1-.1-.2-.3-.3-.3-.1-.1-.3-.1-.5-.1-.4 0-.7.1-.9.4-.2.3-.2.7-.2 1.3v1.2c0 .6.1 1 .2 1.3.2.3.5.4.9.4s.7-.1.9-.4c.2-.3.2-.7.2-1.3v-1.2c0-.3 0-.5-.1-.7-.1-.3-.1-.4-.2-.6zm-.2 2.5v.7c0 .1 0 .2-.1.3l-.1.2c-.1.1-.1.1-.2.1h-.6l-.2-.1c-.1-.1-.1-.1-.1-.2l-.1-.3v-2.8l.1-.3.2-.2.3-.1s.2 0 .3.1c.1 0 .2.1.2.2l.1.3c0 .1 0 .2.1.4v1.7zM161.1 36c-.1-.1-.2-.3-.3-.3-.1-.1-.3-.1-.5-.1-.4 0-.7.1-.9.4-.2.3-.2.7-.2 1.3v1.2c0 .6.1 1 .2 1.3.2.3.5.4.9.4s.7-.1.9-.4c.2-.3.2-.7.2-1.3v-1.2c0-.3 0-.5-.1-.7-.1-.3-.1-.4-.2-.6zm-.2 2.5v.7c0 .1 0 .2-.1.3l-.1.2c-.1.1-.1.1-.2.1h-.6l-.2-.1c-.1-.1-.1-.1-.1-.2l-.1-.3v-2.8l.1-.3.2-.2.3-.1s.2 0 .3.1c.1 0 .2.1.2.2l.1.3c0 .1 0 .2.1.4v1.7zM152.1 33.9h.4v6.2h-.4zM155 39.3c-.1.2-.3.3-.5.4-.2.1-.3.1-.5.1s-.3 0-.3-.1c-.1-.1-.1-.3-.1-.5v-3.5h-.4v3.6c0 .3.1.6.2.7.1.2.3.2.5.2s.4-.1.6-.2c.2-.1.4-.2.5-.4v.6h.4v-4.5h-.4v3.6zM156.8 34.4h-.4v1.2h-.6v.4h.6v3.5c0 .1 0 .2.1.3 0 .1.1.2.1.2.1.1.1.1.2.1h.3c.2 0 .3 0 .4-.1v-.3h-.3c-.2 0-.2 0-.3-.1-.1-.1-.1-.3-.1-.5v-3.1h.7v-.4h-.8v-1.2zM158 35.6h.4v4.5h-.4zM158 34.4h.4v.7h-.4zM166.8 38.7c0-.1-.1-.2-.2-.4-.1-.1-.2-.2-.2-.3l-.3-.3-.5-.5-.4-.4c-.1-.1-.1-.3-.1-.4 0-.2.1-.3.2-.4.1-.1.3-.2.5-.2.4 0 .7.3.7.9l.3-.1c0-.4-.1-.6-.3-.8-.2-.2-.4-.3-.7-.3-.3 0-.6.1-.7.3-.2.2-.3.4-.3.7 0 .2.1.4.2.6.1.2.3.3.5.5l.5.4c.4.4.7.7.7 1 0 .2-.1.4-.2.5-.1.1-.3.2-.5.2-.5 0-.8-.3-.9-1l-.3.1c0 .4.2.7.4.9s.5.3.8.3c.3 0 .6-.1.8-.3.2-.2.3-.4.3-.7-.2 0-.2-.2-.3-.3zM163.4 35.6c-.4 0-.7.2-1.1.5v-.5h-.4v4.5h.4v-3.7l.4-.4c.2-.1.3-.1.4-.1.2 0 .3.1.3.2.1.1.1.3.1.5v3.5h.4v-3.6c0-.3-.1-.6-.2-.7.1-.1-.1-.2-.3-.2zM136.7 35.6v4.5h.4v-4.5zM144.3 33.9v2.1c-.2-.3-.5-.4-.8-.4-.4 0-.7.1-.8.4-.1.3-.2.8-.2 1.4v.8c0 .7.1 1.2.2 1.4.2.3.4.4.8.4.3 0 .6-.1.8-.4v.4h.4v-6.2h-.4v.1zm-.7 5.9c-.3 0-.5-.1-.6-.3-.1-.2-.1-.6-.1-1.2v-.9c0-.5 0-.9.1-1.1.1-.2.3-.3.5-.3s.5.1.7.4v3.2c-.1.1-.3.2-.6.2z"/></svg>